# MagicaVoxel @ Ephtracy

# group
o 

# material
mtllib main hero-1.mtl
usemtl palette

# normals
vn -1 0 0
vn 1 0 0
vn 0 0 1
vn 0 0 -1
vn 0 -1 0
vn 0 1 0

# texcoords
vt 0.412109 0.5
vt 0.416016 0.5
vt 0.501953 0.5

# verts
v 3.2 21 7.9
v 3.2 21 7
v 3.2 21.7 7.9
v 3.2 21.7 7
v 3.3 21 8
v 3.3 21 7.9
v 3.3 21.7 8
v 3.3 21.7 7.9
v 3.6 20.9 8
v 3.6 20.9 7
v 3.6 21 8
v 3.6 21 7
v 3.8 20.8 7.8
v 3.8 20.8 7.2
v 3.8 20.9 7.8
v 3.8 20.9 7.2
v 3.9 21.7 7.9
v 3.9 21.7 7.1
v 3.9 21.8 7.9
v 3.9 21.8 7.1
v 5 21.7 7.9
v 5 21.7 7.1
v 5 21.8 7.9
v 5 21.8 7.1
v 5.3 20.8 7.8
v 5.3 20.8 7.2
v 5.3 20.9 7.8
v 5.3 20.9 7.2
v 5.4 21.6 8
v 5.4 21.6 7
v 5.4 21.7 8
v 5.4 21.7 7
v 5.5 20.9 8
v 5.5 20.9 7
v 5.5 21.6 8
v 5.5 21.6 7
v 3.3 21 8
v 3.3 21.7 8
v 3.6 20.9 8
v 3.6 21 8
v 3.6 21.7 8
v 4.6 21.6 8
v 4.6 21.7 8
v 4.7 21.2 8
v 4.7 21.3 8
v 4.8 21.1 8
v 4.8 21.2 8
v 4.9 21.1 8
v 4.9 21.3 8
v 5 21.6 8
v 5 21.7 8
v 5.4 21.6 8
v 5.4 21.7 8
v 5.5 20.9 8
v 5.5 21.6 8
v 3.2 21 7.9
v 3.2 21.7 7.9
v 3.3 21 7.9
v 3.3 21.7 7.9
v 3.9 21.7 7.9
v 3.9 21.8 7.9
v 4.6 21.7 7.9
v 5 21.7 7.9
v 5 21.8 7.9
v 3.8 20.8 7.8
v 3.8 20.9 7.8
v 5.3 20.8 7.8
v 5.3 20.9 7.8
v 3.8 20.8 7.2
v 3.8 20.9 7.2
v 5.3 20.8 7.2
v 5.3 20.9 7.2
v 3.9 21.7 7.1
v 3.9 21.8 7.1
v 5 21.7 7.1
v 5 21.8 7.1
v 3.2 21 7
v 3.2 21.7 7
v 3.6 20.9 7
v 3.6 21 7
v 3.7 21 7
v 3.7 21.7 7
v 5.4 21.6 7
v 5.4 21.7 7
v 5.5 20.9 7
v 5.5 21.6 7
v 3.8 20.8 7.8
v 5.3 20.8 7.8
v 3.8 20.8 7.2
v 5.3 20.8 7.2
v 3.6 20.9 8
v 5.5 20.9 8
v 3.8 20.9 7.8
v 5.3 20.9 7.8
v 3.8 20.9 7.2
v 5.3 20.9 7.2
v 3.6 20.9 7
v 5.5 20.9 7
v 3.3 21 8
v 3.6 21 8
v 3.2 21 7.9
v 3.3 21 7.9
v 3.2 21 7
v 3.6 21 7
v 5.4 21.6 8
v 5.5 21.6 8
v 5.4 21.6 7
v 5.5 21.6 7
v 3.3 21.7 8
v 3.6 21.7 8
v 4.6 21.7 8
v 5 21.7 8
v 5.4 21.7 8
v 3.2 21.7 7.9
v 3.3 21.7 7.9
v 3.9 21.7 7.9
v 4.6 21.7 7.9
v 5 21.7 7.9
v 3.6 21.7 7.1
v 3.7 21.7 7.1
v 3.9 21.7 7.1
v 5 21.7 7.1
v 3.2 21.7 7
v 3.7 21.7 7
v 5.4 21.7 7
v 3.9 21.8 7.9
v 5 21.8 7.9
v 4.4 21.8 7.6
v 4.9 21.8 7.6
v 4.1 21.8 7.5
v 4.4 21.8 7.5
v 4.9 21.8 7.5
v 4.1 21.8 7.4
v 4.4 21.8 7.4
v 3.9 21.8 7.1
v 5 21.8 7.1

# faces
f 3/3/1 2/3/1 1/3/1
f 4/3/1 2/3/1 3/3/1
f 7/3/1 6/3/1 5/3/1
f 8/3/1 6/3/1 7/3/1
f 11/1/1 10/1/1 9/1/1
f 12/1/1 10/1/1 11/1/1
f 15/1/1 14/1/1 13/1/1
f 16/1/1 14/1/1 15/1/1
f 19/1/1 18/1/1 17/1/1
f 20/1/1 18/1/1 19/1/1
f 21/1/2 22/1/2 23/1/2
f 23/1/2 22/1/2 24/1/2
f 25/1/2 26/1/2 27/1/2
f 27/1/2 26/1/2 28/1/2
f 29/1/2 30/1/2 31/1/2
f 31/1/2 30/1/2 32/1/2
f 33/1/2 34/1/2 35/1/2
f 35/1/2 34/1/2 36/1/2
f 40/3/3 38/3/3 37/3/3
f 41/3/3 38/3/3 40/3/3
f 42/1/3 40/1/3 39/1/3
f 42/1/3 41/1/3 40/1/3
f 43/1/3 41/1/3 42/1/3
f 44/1/3 42/1/3 39/1/3
f 45/1/3 42/1/3 44/1/3
f 46/1/3 44/1/3 39/1/3
f 47/2/3 45/2/3 44/2/3
f 47/1/3 44/1/3 46/1/3
f 48/1/3 46/1/3 39/1/3
f 48/2/3 47/2/3 46/2/3
f 49/1/3 42/1/3 45/1/3
f 49/2/3 47/2/3 48/2/3
f 49/2/3 45/2/3 47/2/3
f 50/2/3 43/2/3 42/2/3
f 50/1/3 42/1/3 49/1/3
f 50/1/3 49/1/3 48/1/3
f 51/2/3 43/2/3 50/2/3
f 52/1/3 50/1/3 48/1/3
f 52/1/3 51/1/3 50/1/3
f 53/1/3 51/1/3 52/1/3
f 54/1/3 48/1/3 39/1/3
f 54/1/3 52/1/3 48/1/3
f 55/1/3 52/1/3 54/1/3
f 58/3/3 57/3/3 56/3/3
f 59/3/3 57/3/3 58/3/3
f 62/1/3 61/1/3 60/1/3
f 63/1/3 61/1/3 62/1/3
f 64/1/3 61/1/3 63/1/3
f 67/1/3 66/1/3 65/1/3
f 68/1/3 66/1/3 67/1/3
f 69/1/4 70/1/4 71/1/4
f 71/1/4 70/1/4 72/1/4
f 73/1/4 74/1/4 75/1/4
f 75/1/4 74/1/4 76/1/4
f 77/3/4 78/3/4 80/3/4
f 80/3/4 78/3/4 81/3/4
f 79/1/4 80/1/4 81/1/4
f 81/3/4 78/3/4 82/3/4
f 81/1/4 82/1/4 83/1/4
f 83/1/4 82/1/4 84/1/4
f 79/1/4 81/1/4 85/1/4
f 81/1/4 83/1/4 85/1/4
f 85/1/4 83/1/4 86/1/4
f 89/1/5 88/1/5 87/1/5
f 90/1/5 88/1/5 89/1/5
f 93/1/5 92/1/5 91/1/5
f 94/1/5 92/1/5 93/1/5
f 95/1/5 93/1/5 91/1/5
f 96/1/5 92/1/5 94/1/5
f 97/1/5 95/1/5 91/1/5
f 97/1/5 96/1/5 95/1/5
f 98/1/5 92/1/5 96/1/5
f 98/1/5 96/1/5 97/1/5
f 102/3/5 100/3/5 99/3/5
f 103/3/5 102/3/5 101/3/5
f 104/3/5 100/3/5 102/3/5
f 104/3/5 102/3/5 103/3/5
f 105/1/6 106/1/6 107/1/6
f 107/1/6 106/1/6 108/1/6
f 109/3/6 110/3/6 115/3/6
f 110/1/6 111/1/6 116/1/6
f 111/2/6 112/2/6 117/2/6
f 116/1/6 111/1/6 117/1/6
f 112/1/6 113/1/6 118/1/6
f 117/2/6 112/2/6 118/2/6
f 114/3/6 115/3/6 119/3/6
f 115/3/6 110/3/6 119/3/6
f 110/1/6 116/1/6 119/1/6
f 119/1/6 116/1/6 120/1/6
f 120/1/6 116/1/6 121/1/6
f 118/1/6 113/1/6 122/1/6
f 114/3/6 119/3/6 123/3/6
f 119/3/6 120/3/6 123/3/6
f 120/1/6 121/1/6 124/1/6
f 123/3/6 120/3/6 124/3/6
f 121/1/6 122/1/6 124/1/6
f 122/1/6 113/1/6 125/1/6
f 124/1/6 122/1/6 125/1/6
f 126/1/6 127/1/6 128/1/6
f 128/1/6 127/1/6 129/1/6
f 126/1/6 128/1/6 130/1/6
f 128/2/6 129/2/6 131/2/6
f 130/1/6 128/1/6 131/1/6
f 129/1/6 127/1/6 132/1/6
f 131/2/6 129/2/6 132/2/6
f 130/2/6 131/2/6 133/2/6
f 126/1/6 130/1/6 133/1/6
f 131/1/6 132/1/6 134/1/6
f 133/2/6 131/2/6 134/2/6
f 126/1/6 133/1/6 135/1/6
f 133/1/6 134/1/6 135/1/6
f 132/1/6 127/1/6 136/1/6
f 135/1/6 134/1/6 136/1/6
f 134/1/6 132/1/6 136/1/6
