# MagicaVoxel @ Ephtracy

# group
o 

# material
mtllib UZI-0.mtl
usemtl palette

# normals
vn -1 0 0
vn 1 0 0
vn 0 0 1
vn 0 0 -1
vn 0 -1 0
vn 0 1 0

# texcoords
vt 0.814453 0.5
vt 0.845703 0.5
vt 0.908203 0.5
vt 0.912109 0.5

# verts
v 14.2 4.2 0.2
v 14.2 4.2 -0.2
v 14.2 4.3 0.1
v 14.2 4.3 -0.1
v 14.2 4.5 0.1
v 14.2 4.5 -0.1
v 14.2 4.6 0.2
v 14.2 4.6 -0.2
v 14.6 4.2 0.2
v 14.6 4.2 -0.2
v 14.6 4.3 0.1
v 14.6 4.3 -0.1
v 14.6 4.5 0.1
v 14.6 4.5 -0.1
v 14.6 4.6 0.2
v 14.6 4.6 -0.2
v 14.2 4.2 0.2
v 14.2 4.6 0.2
v 14.6 4.2 0.2
v 14.6 4.6 0.2
v 14.2 4.2 -0.2
v 14.2 4.6 -0.2
v 14.6 4.2 -0.2
v 14.6 4.6 -0.2
v 14.2 4.2 0.2
v 14.6 4.2 0.2
v 14.2 4.2 -0.2
v 14.6 4.2 -0.2
v 14.2 4.6 0.2
v 14.6 4.6 0.2
v 14.2 4.6 -0.2
v 14.6 4.6 -0.2

# faces
f 3/3/1 2/3/1 1/3/1
f 4/3/1 2/3/1 3/3/1
f 5/3/1 3/3/1 1/3/1
f 5/1/1 4/1/1 3/1/1
f 6/3/1 2/3/1 4/3/1
f 6/1/1 4/1/1 5/1/1
f 7/3/1 5/3/1 1/3/1
f 7/3/1 6/3/1 5/3/1
f 8/3/1 2/3/1 6/3/1
f 8/3/1 6/3/1 7/3/1
f 9/3/2 10/3/2 11/3/2
f 11/3/2 10/3/2 12/3/2
f 9/3/2 11/3/2 13/3/2
f 11/4/2 12/4/2 13/4/2
f 12/3/2 10/3/2 14/3/2
f 13/4/2 12/4/2 14/4/2
f 9/3/2 13/3/2 15/3/2
f 13/3/2 14/3/2 15/3/2
f 14/3/2 10/3/2 16/3/2
f 15/3/2 14/3/2 16/3/2
f 19/3/3 18/3/3 17/3/3
f 20/3/3 18/3/3 19/3/3
f 21/3/4 22/3/4 23/3/4
f 23/3/4 22/3/4 24/3/4
f 27/3/5 26/3/5 25/3/5
f 28/3/5 26/3/5 27/3/5
f 29/3/6 30/3/6 31/3/6
f 31/3/6 30/3/6 32/3/6
