# MagicaVoxel @ Ephtracy

# group
o 

# material
mtllib UZI-3.mtl
usemtl palette

# normals
vn -1 0 0
vn 1 0 0
vn 0 0 1
vn 0 0 -1
vn 0 -1 0
vn 0 1 0

# texcoords
vt 0.787109 0.5
vt 0.822266 0.5
vt 0.845703 0.5
vt 0.849609 0.5

# verts
v 11.7 2.8 0.2
v 11.7 2.8 -0.2
v 11.7 2.9 0.1
v 11.7 2.9 -0.1
v 11.7 3 0.1
v 11.7 3 -0.1
v 11.7 3.1 0.1
v 11.7 3.1 -0.1
v 11.7 3.2 0.1
v 11.7 3.2 -0.1
v 11.7 3.3 0.1
v 11.7 3.3 -0.1
v 11.7 3.4 0.1
v 11.7 3.4 -0.1
v 11.7 3.5 0.1
v 11.7 3.5 -0.1
v 11.7 3.6 0.1
v 11.7 3.6 -0.1
v 11.7 3.7 0.1
v 11.7 3.7 -0.1
v 11.7 3.8 0.2
v 11.7 3.8 0.1
v 11.7 3.8 -0.1
v 11.7 3.8 -0.2
v 11.7 4 0.2
v 11.7 4 -0.2
v 12.3 3.2 0.2
v 12.3 3.2 0.1
v 12.3 3.2 -0.1
v 12.3 3.2 -0.2
v 12.3 3.3 0.1
v 12.3 3.3 -0.1
v 12.3 3.4 0.1
v 12.3 3.4 -0.1
v 12.3 3.5 0.1
v 12.3 3.5 -0.1
v 12.3 3.6 0.1
v 12.3 3.6 -0.1
v 12.3 3.7 0.2
v 12.3 3.7 -0.2
v 12.3 4 0.2
v 12.3 4 -0.2
v 12.4 2.8 0.2
v 12.4 2.8 -0.2
v 12.4 2.9 0.1
v 12.4 2.9 -0.1
v 12.4 3 0.1
v 12.4 3 -0.1
v 12.4 3.1 0.1
v 12.4 3.1 -0.1
v 12.4 3.2 0.2
v 12.4 3.2 0.1
v 12.4 3.2 -0.1
v 12.4 3.2 -0.2
v 11.7 2.8 0.2
v 11.7 3.8 0.2
v 11.7 4 0.2
v 11.8 2.9 0.2
v 11.8 3 0.2
v 11.8 3.1 0.2
v 11.8 3.2 0.2
v 11.8 3.3 0.2
v 11.8 3.4 0.2
v 11.8 3.5 0.2
v 11.8 3.6 0.2
v 11.8 3.7 0.2
v 11.8 3.8 0.2
v 11.8 3.9 0.2
v 11.9 3.9 0.2
v 11.9 4 0.2
v 12.1 3.7 0.2
v 12.1 3.8 0.2
v 12.1 3.9 0.2
v 12.2 3.1 0.2
v 12.2 3.2 0.2
v 12.2 3.3 0.2
v 12.2 3.4 0.2
v 12.2 3.5 0.2
v 12.2 3.6 0.2
v 12.2 3.7 0.2
v 12.2 3.8 0.2
v 12.3 2.9 0.2
v 12.3 3 0.2
v 12.3 3.2 0.2
v 12.3 3.7 0.2
v 12.3 4 0.2
v 12.4 2.8 0.2
v 12.4 3.2 0.2
v 11.7 2.8 -0.2
v 11.7 3.8 -0.2
v 11.7 4 -0.2
v 11.8 2.9 -0.2
v 11.8 3 -0.2
v 11.8 3.1 -0.2
v 11.8 3.2 -0.2
v 11.8 3.3 -0.2
v 11.8 3.4 -0.2
v 11.8 3.5 -0.2
v 11.8 3.6 -0.2
v 11.8 3.7 -0.2
v 11.8 3.8 -0.2
v 11.8 3.9 -0.2
v 11.9 3.9 -0.2
v 11.9 4 -0.2
v 12.1 3.7 -0.2
v 12.1 3.8 -0.2
v 12.1 3.9 -0.2
v 12.2 3.1 -0.2
v 12.2 3.2 -0.2
v 12.2 3.3 -0.2
v 12.2 3.4 -0.2
v 12.2 3.5 -0.2
v 12.2 3.6 -0.2
v 12.2 3.7 -0.2
v 12.2 3.8 -0.2
v 12.3 2.9 -0.2
v 12.3 3 -0.2
v 12.3 3.2 -0.2
v 12.3 3.7 -0.2
v 12.3 4 -0.2
v 12.4 2.8 -0.2
v 12.4 3.2 -0.2
v 11.7 2.8 0.2
v 12.4 2.8 0.2
v 11.7 2.8 -0.2
v 12.4 2.8 -0.2
v 12.3 3.2 0.2
v 12.4 3.2 0.2
v 12.3 3.2 0.1
v 12.4 3.2 0.1
v 12.3 3.2 -0.1
v 12.4 3.2 -0.1
v 12.3 3.2 -0.2
v 12.4 3.2 -0.2
v 11.7 4 0.2
v 11.9 4 0.2
v 12.3 4 0.2
v 11.8 4 0.1
v 11.9 4 0.1
v 11.8 4 -0.1
v 11.9 4 -0.1
v 11.7 4 -0.2
v 11.9 4 -0.2
v 12.3 4 -0.2

# faces
f 3/1/1 2/1/1 1/1/1
f 4/1/1 2/1/1 3/1/1
f 5/1/1 3/1/1 1/1/1
f 5/4/1 4/4/1 3/4/1
f 6/1/1 2/1/1 4/1/1
f 6/4/1 4/4/1 5/4/1
f 7/1/1 5/1/1 1/1/1
f 7/1/1 6/1/1 5/1/1
f 8/1/1 2/1/1 6/1/1
f 8/1/1 6/1/1 7/1/1
f 9/1/1 7/1/1 1/1/1
f 9/4/1 8/4/1 7/4/1
f 10/1/1 2/1/1 8/1/1
f 10/4/1 8/4/1 9/4/1
f 11/1/1 9/1/1 1/1/1
f 11/1/1 10/1/1 9/1/1
f 12/1/1 2/1/1 10/1/1
f 12/1/1 10/1/1 11/1/1
f 13/1/1 11/1/1 1/1/1
f 13/4/1 12/4/1 11/4/1
f 14/1/1 2/1/1 12/1/1
f 14/4/1 12/4/1 13/4/1
f 15/1/1 13/1/1 1/1/1
f 15/1/1 14/1/1 13/1/1
f 16/1/1 2/1/1 14/1/1
f 16/1/1 14/1/1 15/1/1
f 17/1/1 15/1/1 1/1/1
f 17/4/1 16/4/1 15/4/1
f 18/1/1 2/1/1 16/1/1
f 18/4/1 16/4/1 17/4/1
f 19/1/1 17/1/1 1/1/1
f 19/1/1 18/1/1 17/1/1
f 20/1/1 2/1/1 18/1/1
f 20/1/1 18/1/1 19/1/1
f 21/1/1 19/1/1 1/1/1
f 22/3/1 20/3/1 19/3/1
f 22/1/1 19/1/1 21/1/1
f 23/1/1 2/1/1 20/1/1
f 23/3/1 20/3/1 22/3/1
f 24/1/1 2/1/1 23/1/1
f 25/2/1 22/2/1 21/2/1
f 25/2/1 23/2/1 22/2/1
f 25/2/1 24/2/1 23/2/1
f 26/2/1 24/2/1 25/2/1
f 27/1/2 28/1/2 31/1/2
f 29/1/2 30/1/2 31/1/2
f 28/1/2 29/1/2 31/1/2
f 31/1/2 30/1/2 32/1/2
f 27/1/2 31/1/2 33/1/2
f 31/4/2 32/4/2 33/4/2
f 32/1/2 30/1/2 34/1/2
f 33/4/2 32/4/2 34/4/2
f 27/1/2 33/1/2 35/1/2
f 33/1/2 34/1/2 35/1/2
f 34/1/2 30/1/2 36/1/2
f 35/1/2 34/1/2 36/1/2
f 27/1/2 35/1/2 37/1/2
f 35/4/2 36/4/2 37/4/2
f 36/1/2 30/1/2 38/1/2
f 37/4/2 36/4/2 38/4/2
f 27/1/2 37/1/2 39/1/2
f 37/1/2 38/1/2 39/1/2
f 38/1/2 30/1/2 40/1/2
f 39/1/2 38/1/2 40/1/2
f 39/3/2 40/3/2 41/3/2
f 41/3/2 40/3/2 42/3/2
f 43/1/2 44/1/2 45/1/2
f 45/1/2 44/1/2 46/1/2
f 43/1/2 45/1/2 47/1/2
f 45/4/2 46/4/2 47/4/2
f 46/1/2 44/1/2 48/1/2
f 47/4/2 46/4/2 48/4/2
f 43/1/2 47/1/2 49/1/2
f 47/1/2 48/1/2 49/1/2
f 48/1/2 44/1/2 50/1/2
f 49/1/2 48/1/2 50/1/2
f 43/1/2 49/1/2 51/1/2
f 49/4/2 50/4/2 52/4/2
f 51/1/2 49/1/2 52/1/2
f 50/1/2 44/1/2 53/1/2
f 52/4/2 50/4/2 53/4/2
f 53/1/2 44/1/2 54/1/2
f 58/1/3 56/1/3 55/1/3
f 59/1/3 56/1/3 58/1/3
f 60/1/3 56/1/3 59/1/3
f 61/1/3 56/1/3 60/1/3
f 62/1/3 56/1/3 61/1/3
f 63/1/3 56/1/3 62/1/3
f 64/1/3 56/1/3 63/1/3
f 65/1/3 56/1/3 64/1/3
f 66/1/3 56/1/3 65/1/3
f 67/2/3 57/2/3 56/2/3
f 67/1/3 56/1/3 66/1/3
f 68/2/3 57/2/3 67/2/3
f 69/1/3 68/1/3 67/1/3
f 69/2/3 57/2/3 68/2/3
f 70/2/3 57/2/3 69/2/3
f 71/1/3 66/1/3 65/1/3
f 71/4/3 67/4/3 66/4/3
f 72/1/3 69/1/3 67/1/3
f 72/4/3 67/4/3 71/4/3
f 73/3/3 70/3/3 69/3/3
f 73/1/3 69/1/3 72/1/3
f 74/1/3 60/1/3 59/1/3
f 74/4/3 61/4/3 60/4/3
f 75/1/3 62/1/3 61/1/3
f 75/4/3 61/4/3 74/4/3
f 76/4/3 63/4/3 62/4/3
f 76/1/3 62/1/3 75/1/3
f 77/1/3 64/1/3 63/1/3
f 77/4/3 63/4/3 76/4/3
f 78/4/3 65/4/3 64/4/3
f 78/1/3 64/1/3 77/1/3
f 79/1/3 72/1/3 71/1/3
f 79/4/3 65/4/3 78/4/3
f 79/1/3 71/1/3 65/1/3
f 80/1/3 72/1/3 79/1/3
f 81/3/3 73/3/3 72/3/3
f 81/1/3 72/1/3 80/1/3
f 82/1/3 58/1/3 55/1/3
f 82/4/3 59/4/3 58/4/3
f 83/1/3 80/1/3 79/1/3
f 83/4/3 59/4/3 82/4/3
f 83/1/3 74/1/3 59/1/3
f 83/1/3 79/1/3 78/1/3
f 83/1/3 78/1/3 77/1/3
f 83/1/3 77/1/3 76/1/3
f 83/1/3 76/1/3 75/1/3
f 83/1/3 75/1/3 74/1/3
f 84/1/3 80/1/3 83/1/3
f 85/3/3 81/3/3 80/3/3
f 85/1/3 80/1/3 84/1/3
f 86/3/3 73/3/3 81/3/3
f 86/3/3 81/3/3 85/3/3
f 86/3/3 70/3/3 73/3/3
f 87/1/3 84/1/3 83/1/3
f 87/1/3 82/1/3 55/1/3
f 87/1/3 83/1/3 82/1/3
f 88/1/3 84/1/3 87/1/3
f 89/1/4 90/1/4 92/1/4
f 92/1/4 90/1/4 93/1/4
f 93/1/4 90/1/4 94/1/4
f 94/1/4 90/1/4 95/1/4
f 95/1/4 90/1/4 96/1/4
f 96/1/4 90/1/4 97/1/4
f 97/1/4 90/1/4 98/1/4
f 98/1/4 90/1/4 99/1/4
f 99/1/4 90/1/4 100/1/4
f 90/2/4 91/2/4 101/2/4
f 100/1/4 90/1/4 101/1/4
f 101/2/4 91/2/4 102/2/4
f 101/1/4 102/1/4 103/1/4
f 102/2/4 91/2/4 103/2/4
f 103/2/4 91/2/4 104/2/4
f 99/1/4 100/1/4 105/1/4
f 100/4/4 101/4/4 105/4/4
f 101/1/4 103/1/4 106/1/4
f 105/4/4 101/4/4 106/4/4
f 103/3/4 104/3/4 107/3/4
f 106/1/4 103/1/4 107/1/4
f 93/1/4 94/1/4 108/1/4
f 94/4/4 95/4/4 108/4/4
f 95/1/4 96/1/4 109/1/4
f 108/4/4 95/4/4 109/4/4
f 96/4/4 97/4/4 110/4/4
f 109/1/4 96/1/4 110/1/4
f 97/1/4 98/1/4 111/1/4
f 110/4/4 97/4/4 111/4/4
f 98/4/4 99/4/4 112/4/4
f 111/1/4 98/1/4 112/1/4
f 105/1/4 106/1/4 113/1/4
f 112/4/4 99/4/4 113/4/4
f 99/1/4 105/1/4 113/1/4
f 113/1/4 106/1/4 114/1/4
f 106/3/4 107/3/4 115/3/4
f 114/1/4 106/1/4 115/1/4
f 89/1/4 92/1/4 116/1/4
f 92/4/4 93/4/4 116/4/4
f 113/1/4 114/1/4 117/1/4
f 116/4/4 93/4/4 117/4/4
f 93/1/4 108/1/4 117/1/4
f 112/1/4 113/1/4 117/1/4
f 111/1/4 112/1/4 117/1/4
f 110/1/4 111/1/4 117/1/4
f 109/1/4 110/1/4 117/1/4
f 108/1/4 109/1/4 117/1/4
f 117/1/4 114/1/4 118/1/4
f 114/3/4 115/3/4 119/3/4
f 118/1/4 114/1/4 119/1/4
f 115/3/4 107/3/4 120/3/4
f 119/3/4 115/3/4 120/3/4
f 107/3/4 104/3/4 120/3/4
f 117/1/4 118/1/4 121/1/4
f 89/1/4 116/1/4 121/1/4
f 116/1/4 117/1/4 121/1/4
f 121/1/4 118/1/4 122/1/4
f 125/1/5 124/1/5 123/1/5
f 126/1/5 124/1/5 125/1/5
f 127/1/6 128/1/6 129/1/6
f 129/1/6 128/1/6 130/1/6
f 129/4/6 130/4/6 131/4/6
f 131/4/6 130/4/6 132/4/6
f 131/1/6 132/1/6 133/1/6
f 133/1/6 132/1/6 134/1/6
f 135/2/6 136/2/6 138/2/6
f 136/3/6 137/3/6 139/3/6
f 138/2/6 136/2/6 139/2/6
f 135/2/6 138/2/6 140/2/6
f 138/3/6 139/3/6 140/3/6
f 139/3/6 137/3/6 141/3/6
f 140/3/6 139/3/6 141/3/6
f 135/2/6 140/2/6 142/2/6
f 140/2/6 141/2/6 142/2/6
f 141/3/6 137/3/6 143/3/6
f 142/2/6 141/2/6 143/2/6
f 143/3/6 137/3/6 144/3/6
