# MagicaVoxel @ Ephtracy

# group
o 

# material
mtllib UZI-4.mtl
usemtl palette

# normals
vn -1 0 0
vn 1 0 0
vn 0 0 1
vn 0 0 -1
vn 0 -1 0
vn 0 1 0

# texcoords
vt 0.751953 0.5
vt 0.755859 0.5
vt 0.759766 0.5
vt 0.787109 0.5
vt 0.814453 0.5
vt 0.845703 0.5
vt 0.849609 0.5

# verts
v 11.8 2.5 0.2
v 11.8 2.5 -0.2
v 11.8 2.7 0.2
v 11.8 2.7 -0.2
v 11.8 3 0.2
v 11.8 3 -0.2
v 11.8 3.2 0.2
v 11.8 3.2 -0.2
v 11.8 3.3 0.2
v 11.8 3.3 -0.2
v 11.8 3.5 0.2
v 11.8 3.5 -0.2
v 11.8 3.6 0.2
v 11.8 3.6 -0.2
v 11.8 3.8 0.1
v 11.8 3.8 0
v 11.8 3.8 -0.1
v 11.8 3.9 0.2
v 11.8 3.9 0.1
v 11.8 3.9 0
v 11.8 3.9 -0.1
v 11.8 3.9 -0.2
v 12.2 2.5 0.2
v 12.2 2.5 -0.2
v 12.2 2.7 0.2
v 12.2 2.7 -0.2
v 12.2 2.8 0.2
v 12.2 2.8 -0.2
v 12.2 3 0.2
v 12.2 3 -0.2
v 12.2 3.1 0.2
v 12.2 3.1 -0.2
v 12.2 3.3 0.2
v 12.2 3.3 -0.2
v 12.2 3.4 0.2
v 12.2 3.4 -0.2
v 12.2 3.8 0.1
v 12.2 3.8 -0.1
v 12.2 3.9 0.2
v 12.2 3.9 0.1
v 12.2 3.9 -0.1
v 12.2 3.9 -0.2
v 11.8 2.5 0.2
v 11.8 2.7 0.2
v 11.8 3 0.2
v 11.8 3.2 0.2
v 11.8 3.3 0.2
v 11.8 3.5 0.2
v 11.8 3.6 0.2
v 11.8 3.9 0.2
v 11.9 2.9 0.2
v 11.9 3 0.2
v 11.9 3.1 0.2
v 11.9 3.2 0.2
v 11.9 3.3 0.2
v 11.9 3.4 0.2
v 11.9 3.5 0.2
v 11.9 3.6 0.2
v 12 2.8 0.2
v 12 2.9 0.2
v 12 3 0.2
v 12 3.1 0.2
v 12 3.2 0.2
v 12 3.3 0.2
v 12 3.4 0.2
v 12 3.5 0.2
v 12.2 2.5 0.2
v 12.2 2.7 0.2
v 12.2 2.8 0.2
v 12.2 3 0.2
v 12.2 3.1 0.2
v 12.2 3.3 0.2
v 12.2 3.4 0.2
v 12.2 3.9 0.2
v 11.8 2.5 -0.2
v 11.8 2.7 -0.2
v 11.8 3 -0.2
v 11.8 3.2 -0.2
v 11.8 3.3 -0.2
v 11.8 3.5 -0.2
v 11.8 3.6 -0.2
v 11.8 3.9 -0.2
v 11.9 2.9 -0.2
v 11.9 3 -0.2
v 11.9 3.1 -0.2
v 11.9 3.2 -0.2
v 11.9 3.3 -0.2
v 11.9 3.4 -0.2
v 11.9 3.5 -0.2
v 11.9 3.6 -0.2
v 12 2.8 -0.2
v 12 2.9 -0.2
v 12 3 -0.2
v 12 3.1 -0.2
v 12 3.2 -0.2
v 12 3.3 -0.2
v 12 3.4 -0.2
v 12 3.5 -0.2
v 12.2 2.5 -0.2
v 12.2 2.7 -0.2
v 12.2 2.8 -0.2
v 12.2 3 -0.2
v 12.2 3.1 -0.2
v 12.2 3.3 -0.2
v 12.2 3.4 -0.2
v 12.2 3.9 -0.2
v 11.8 2.5 0.2
v 12.2 2.5 0.2
v 11.8 2.5 -0.2
v 12.2 2.5 -0.2
v 11.8 3.9 0.2
v 12.2 3.9 0.2
v 11.8 3.9 0.1
v 12.1 3.9 0.1
v 12.2 3.9 0.1
v 11.8 3.9 0
v 12.1 3.9 0
v 11.8 3.9 -0.1
v 12.1 3.9 -0.1
v 12.2 3.9 -0.1
v 11.8 3.9 -0.2
v 12.2 3.9 -0.2

# faces
f 3/5/1 2/5/1 1/5/1
f 4/5/1 2/5/1 3/5/1
f 5/4/1 4/4/1 3/4/1
f 6/4/1 4/4/1 5/4/1
f 7/7/1 6/7/1 5/7/1
f 8/7/1 6/7/1 7/7/1
f 9/4/1 8/4/1 7/4/1
f 10/4/1 8/4/1 9/4/1
f 11/7/1 10/7/1 9/7/1
f 12/7/1 10/7/1 11/7/1
f 13/4/1 12/4/1 11/4/1
f 14/4/1 12/4/1 13/4/1
f 15/7/1 14/7/1 13/7/1
f 16/7/1 14/7/1 15/7/1
f 17/7/1 14/7/1 16/7/1
f 18/7/1 15/7/1 13/7/1
f 19/1/1 16/1/1 15/1/1
f 19/7/1 15/7/1 18/7/1
f 20/2/1 17/2/1 16/2/1
f 20/1/1 16/1/1 19/1/1
f 21/7/1 14/7/1 17/7/1
f 21/2/1 17/2/1 20/2/1
f 22/7/1 14/7/1 21/7/1
f 23/5/2 24/5/2 25/5/2
f 25/5/2 24/5/2 26/5/2
f 25/4/2 26/4/2 27/4/2
f 27/4/2 26/4/2 28/4/2
f 27/7/2 28/7/2 29/7/2
f 29/7/2 28/7/2 30/7/2
f 29/4/2 30/4/2 31/4/2
f 31/4/2 30/4/2 32/4/2
f 31/7/2 32/7/2 33/7/2
f 33/7/2 32/7/2 34/7/2
f 33/4/2 34/4/2 35/4/2
f 35/4/2 34/4/2 36/4/2
f 35/7/2 36/7/2 37/7/2
f 37/7/2 36/7/2 38/7/2
f 35/7/2 37/7/2 39/7/2
f 37/3/2 38/3/2 40/3/2
f 39/7/2 37/7/2 40/7/2
f 38/7/2 36/7/2 41/7/2
f 40/3/2 38/3/2 41/3/2
f 41/7/2 36/7/2 42/7/2
f 51/4/3 45/4/3 44/4/3
f 52/7/3 46/7/3 45/7/3
f 52/4/3 45/4/3 51/4/3
f 53/7/3 46/7/3 52/7/3
f 54/4/3 47/4/3 46/4/3
f 54/7/3 46/7/3 53/7/3
f 55/7/3 48/7/3 47/7/3
f 55/4/3 47/4/3 54/4/3
f 56/7/3 48/7/3 55/7/3
f 57/4/3 49/4/3 48/4/3
f 57/7/3 48/7/3 56/7/3
f 58/7/3 50/7/3 49/7/3
f 58/4/3 49/4/3 57/4/3
f 59/4/3 51/4/3 44/4/3
f 60/7/3 53/7/3 52/7/3
f 60/4/3 51/4/3 59/4/3
f 60/7/3 52/7/3 51/7/3
f 61/7/3 53/7/3 60/7/3
f 62/4/3 54/4/3 53/4/3
f 62/7/3 53/7/3 61/7/3
f 63/7/3 56/7/3 55/7/3
f 63/4/3 54/4/3 62/4/3
f 63/7/3 55/7/3 54/7/3
f 64/7/3 56/7/3 63/7/3
f 65/4/3 57/4/3 56/4/3
f 65/7/3 56/7/3 64/7/3
f 66/7/3 58/7/3 57/7/3
f 66/4/3 57/4/3 65/4/3
f 67/5/3 44/5/3 43/5/3
f 68/4/3 59/4/3 44/4/3
f 68/5/3 44/5/3 67/5/3
f 69/7/3 61/7/3 60/7/3
f 69/4/3 59/4/3 68/4/3
f 69/7/3 60/7/3 59/7/3
f 70/4/3 62/4/3 61/4/3
f 70/7/3 61/7/3 69/7/3
f 71/7/3 64/7/3 63/7/3
f 71/4/3 62/4/3 70/4/3
f 71/7/3 63/7/3 62/7/3
f 72/4/3 65/4/3 64/4/3
f 72/7/3 64/7/3 71/7/3
f 73/7/3 66/7/3 65/7/3
f 73/4/3 65/4/3 72/4/3
f 74/7/3 58/7/3 66/7/3
f 74/7/3 66/7/3 73/7/3
f 74/7/3 50/7/3 58/7/3
f 76/4/4 77/4/4 83/4/4
f 77/7/4 78/7/4 84/7/4
f 83/4/4 77/4/4 84/4/4
f 84/7/4 78/7/4 85/7/4
f 78/4/4 79/4/4 86/4/4
f 85/7/4 78/7/4 86/7/4
f 79/7/4 80/7/4 87/7/4
f 86/4/4 79/4/4 87/4/4
f 87/7/4 80/7/4 88/7/4
f 80/4/4 81/4/4 89/4/4
f 88/7/4 80/7/4 89/7/4
f 81/7/4 82/7/4 90/7/4
f 89/4/4 81/4/4 90/4/4
f 76/4/4 83/4/4 91/4/4
f 84/7/4 85/7/4 92/7/4
f 91/4/4 83/4/4 92/4/4
f 83/7/4 84/7/4 92/7/4
f 92/7/4 85/7/4 93/7/4
f 85/4/4 86/4/4 94/4/4
f 93/7/4 85/7/4 94/7/4
f 87/7/4 88/7/4 95/7/4
f 94/4/4 86/4/4 95/4/4
f 86/7/4 87/7/4 95/7/4
f 95/7/4 88/7/4 96/7/4
f 88/4/4 89/4/4 97/4/4
f 96/7/4 88/7/4 97/7/4
f 89/7/4 90/7/4 98/7/4
f 97/4/4 89/4/4 98/4/4
f 75/5/4 76/5/4 99/5/4
f 76/4/4 91/4/4 100/4/4
f 99/5/4 76/5/4 100/5/4
f 92/7/4 93/7/4 101/7/4
f 100/4/4 91/4/4 101/4/4
f 91/7/4 92/7/4 101/7/4
f 93/4/4 94/4/4 102/4/4
f 101/7/4 93/7/4 102/7/4
f 95/7/4 96/7/4 103/7/4
f 102/4/4 94/4/4 103/4/4
f 94/7/4 95/7/4 103/7/4
f 96/4/4 97/4/4 104/4/4
f 103/7/4 96/7/4 104/7/4
f 97/7/4 98/7/4 105/7/4
f 104/4/4 97/4/4 105/4/4
f 98/7/4 90/7/4 106/7/4
f 105/7/4 98/7/4 106/7/4
f 90/7/4 82/7/4 106/7/4
f 109/5/5 108/5/5 107/5/5
f 110/5/5 108/5/5 109/5/5
f 111/7/6 112/7/6 113/7/6
f 113/7/6 112/7/6 114/7/6
f 114/7/6 112/7/6 115/7/6
f 113/1/6 114/1/6 116/1/6
f 114/3/6 115/3/6 117/3/6
f 116/1/6 114/1/6 117/1/6
f 116/2/6 117/2/6 118/2/6
f 117/3/6 115/3/6 119/3/6
f 118/2/6 117/2/6 119/2/6
f 119/3/6 115/3/6 120/3/6
f 118/7/6 119/7/6 121/7/6
f 119/7/6 120/7/6 121/7/6
f 121/7/6 120/7/6 122/7/6
