# MagicaVoxel @ Ephtracy

# group
o 

# material
mtllib UZI-5.mtl
usemtl palette

# normals
vn -1 0 0
vn 1 0 0
vn 0 0 1
vn 0 0 -1
vn 0 -1 0
vn 0 1 0

# texcoords
vt 0.787109 0.5
vt 0.814453 0.5
vt 0.845703 0.5
vt 0.849609 0.5
vt 0.912109 0.5

# verts
v 13.3 2.2 0.2
v 13.3 2.2 -0.2
v 13.3 2.4 0.2
v 13.3 2.4 -0.2
v 13.3 2.7 0.2
v 13.3 2.7 -0.2
v 13.3 2.9 0.2
v 13.3 2.9 -0.2
v 13.3 3 0.2
v 13.3 3 -0.2
v 13.3 3.2 0.2
v 13.3 3.2 -0.2
v 13.3 3.3 0.2
v 13.3 3.3 -0.2
v 13.3 3.5 0.1
v 13.3 3.5 -0.1
v 13.3 3.6 0.2
v 13.3 3.6 0.1
v 13.3 3.6 -0.1
v 13.3 3.6 -0.2
v 13.7 2.2 0.2
v 13.7 2.2 -0.2
v 13.7 2.4 0.2
v 13.7 2.4 -0.2
v 13.7 2.5 0.2
v 13.7 2.5 -0.2
v 13.7 2.7 0.2
v 13.7 2.7 -0.2
v 13.7 2.8 0.2
v 13.7 2.8 -0.2
v 13.7 3 0.2
v 13.7 3 -0.2
v 13.7 3.1 0.2
v 13.7 3.1 -0.2
v 13.7 3.5 0.1
v 13.7 3.5 -0.1
v 13.7 3.6 0.2
v 13.7 3.6 0.1
v 13.7 3.6 -0.1
v 13.7 3.6 -0.2
v 13.3 2.2 0.2
v 13.3 2.4 0.2
v 13.3 2.7 0.2
v 13.3 2.9 0.2
v 13.3 3 0.2
v 13.3 3.2 0.2
v 13.3 3.3 0.2
v 13.3 3.6 0.2
v 13.4 2.6 0.2
v 13.4 2.7 0.2
v 13.4 2.8 0.2
v 13.4 2.9 0.2
v 13.4 3 0.2
v 13.4 3.1 0.2
v 13.4 3.2 0.2
v 13.4 3.3 0.2
v 13.5 2.5 0.2
v 13.5 2.6 0.2
v 13.5 2.7 0.2
v 13.5 2.8 0.2
v 13.5 2.9 0.2
v 13.5 3 0.2
v 13.5 3.1 0.2
v 13.5 3.2 0.2
v 13.7 2.2 0.2
v 13.7 2.4 0.2
v 13.7 2.5 0.2
v 13.7 2.7 0.2
v 13.7 2.8 0.2
v 13.7 3 0.2
v 13.7 3.1 0.2
v 13.7 3.6 0.2
v 13.3 2.2 -0.2
v 13.3 2.4 -0.2
v 13.3 2.7 -0.2
v 13.3 2.9 -0.2
v 13.3 3 -0.2
v 13.3 3.2 -0.2
v 13.3 3.3 -0.2
v 13.3 3.6 -0.2
v 13.4 2.6 -0.2
v 13.4 2.7 -0.2
v 13.4 2.8 -0.2
v 13.4 2.9 -0.2
v 13.4 3 -0.2
v 13.4 3.1 -0.2
v 13.4 3.2 -0.2
v 13.4 3.3 -0.2
v 13.5 2.5 -0.2
v 13.5 2.6 -0.2
v 13.5 2.7 -0.2
v 13.5 2.8 -0.2
v 13.5 2.9 -0.2
v 13.5 3 -0.2
v 13.5 3.1 -0.2
v 13.5 3.2 -0.2
v 13.7 2.2 -0.2
v 13.7 2.4 -0.2
v 13.7 2.5 -0.2
v 13.7 2.7 -0.2
v 13.7 2.8 -0.2
v 13.7 3 -0.2
v 13.7 3.1 -0.2
v 13.7 3.6 -0.2
v 13.3 2.2 0.2
v 13.7 2.2 0.2
v 13.3 2.2 -0.2
v 13.7 2.2 -0.2
v 13.3 3.6 0.2
v 13.7 3.6 0.2
v 13.3 3.6 0.1
v 13.7 3.6 0.1
v 13.3 3.6 -0.1
v 13.7 3.6 -0.1
v 13.3 3.6 -0.2
v 13.7 3.6 -0.2

# faces
f 3/2/1 2/2/1 1/2/1
f 4/2/1 2/2/1 3/2/1
f 5/1/1 4/1/1 3/1/1
f 6/1/1 4/1/1 5/1/1
f 7/4/1 6/4/1 5/4/1
f 8/4/1 6/4/1 7/4/1
f 9/1/1 8/1/1 7/1/1
f 10/1/1 8/1/1 9/1/1
f 11/4/1 10/4/1 9/4/1
f 12/4/1 10/4/1 11/4/1
f 13/1/1 12/1/1 11/1/1
f 14/1/1 12/1/1 13/1/1
f 15/4/1 14/4/1 13/4/1
f 16/4/1 14/4/1 15/4/1
f 17/4/1 15/4/1 13/4/1
f 18/5/1 16/5/1 15/5/1
f 18/4/1 15/4/1 17/4/1
f 19/4/1 14/4/1 16/4/1
f 19/5/1 16/5/1 18/5/1
f 20/4/1 14/4/1 19/4/1
f 21/2/2 22/2/2 23/2/2
f 23/2/2 22/2/2 24/2/2
f 23/1/2 24/1/2 25/1/2
f 25/1/2 24/1/2 26/1/2
f 25/4/2 26/4/2 27/4/2
f 27/4/2 26/4/2 28/4/2
f 27/1/2 28/1/2 29/1/2
f 29/1/2 28/1/2 30/1/2
f 29/4/2 30/4/2 31/4/2
f 31/4/2 30/4/2 32/4/2
f 31/1/2 32/1/2 33/1/2
f 33/1/2 32/1/2 34/1/2
f 33/4/2 34/4/2 35/4/2
f 35/4/2 34/4/2 36/4/2
f 33/4/2 35/4/2 37/4/2
f 35/5/2 36/5/2 38/5/2
f 37/4/2 35/4/2 38/4/2
f 36/4/2 34/4/2 39/4/2
f 38/5/2 36/5/2 39/5/2
f 39/4/2 34/4/2 40/4/2
f 49/1/3 43/1/3 42/1/3
f 50/4/3 44/4/3 43/4/3
f 50/1/3 43/1/3 49/1/3
f 51/4/3 44/4/3 50/4/3
f 52/1/3 45/1/3 44/1/3
f 52/4/3 44/4/3 51/4/3
f 53/4/3 46/4/3 45/4/3
f 53/1/3 45/1/3 52/1/3
f 54/4/3 46/4/3 53/4/3
f 55/1/3 47/1/3 46/1/3
f 55/4/3 46/4/3 54/4/3
f 56/4/3 48/4/3 47/4/3
f 56/1/3 47/1/3 55/1/3
f 57/1/3 49/1/3 42/1/3
f 58/4/3 51/4/3 50/4/3
f 58/1/3 49/1/3 57/1/3
f 58/4/3 50/4/3 49/4/3
f 59/4/3 51/4/3 58/4/3
f 60/1/3 52/1/3 51/1/3
f 60/4/3 51/4/3 59/4/3
f 61/4/3 54/4/3 53/4/3
f 61/1/3 52/1/3 60/1/3
f 61/4/3 53/4/3 52/4/3
f 62/4/3 54/4/3 61/4/3
f 63/1/3 55/1/3 54/1/3
f 63/4/3 54/4/3 62/4/3
f 64/4/3 56/4/3 55/4/3
f 64/1/3 55/1/3 63/1/3
f 65/2/3 42/2/3 41/2/3
f 66/1/3 57/1/3 42/1/3
f 66/2/3 42/2/3 65/2/3
f 67/4/3 59/4/3 58/4/3
f 67/1/3 57/1/3 66/1/3
f 67/4/3 58/4/3 57/4/3
f 68/1/3 60/1/3 59/1/3
f 68/4/3 59/4/3 67/4/3
f 69/4/3 62/4/3 61/4/3
f 69/1/3 60/1/3 68/1/3
f 69/4/3 61/4/3 60/4/3
f 70/1/3 63/1/3 62/1/3
f 70/4/3 62/4/3 69/4/3
f 71/4/3 64/4/3 63/4/3
f 71/1/3 63/1/3 70/1/3
f 72/4/3 56/4/3 64/4/3
f 72/4/3 64/4/3 71/4/3
f 72/4/3 48/4/3 56/4/3
f 74/1/4 75/1/4 81/1/4
f 75/4/4 76/4/4 82/4/4
f 81/1/4 75/1/4 82/1/4
f 82/4/4 76/4/4 83/4/4
f 76/1/4 77/1/4 84/1/4
f 83/4/4 76/4/4 84/4/4
f 77/4/4 78/4/4 85/4/4
f 84/1/4 77/1/4 85/1/4
f 85/4/4 78/4/4 86/4/4
f 78/1/4 79/1/4 87/1/4
f 86/4/4 78/4/4 87/4/4
f 79/4/4 80/4/4 88/4/4
f 87/1/4 79/1/4 88/1/4
f 74/1/4 81/1/4 89/1/4
f 82/4/4 83/4/4 90/4/4
f 89/1/4 81/1/4 90/1/4
f 81/4/4 82/4/4 90/4/4
f 90/4/4 83/4/4 91/4/4
f 83/1/4 84/1/4 92/1/4
f 91/4/4 83/4/4 92/4/4
f 85/4/4 86/4/4 93/4/4
f 92/1/4 84/1/4 93/1/4
f 84/4/4 85/4/4 93/4/4
f 93/4/4 86/4/4 94/4/4
f 86/1/4 87/1/4 95/1/4
f 94/4/4 86/4/4 95/4/4
f 87/4/4 88/4/4 96/4/4
f 95/1/4 87/1/4 96/1/4
f 73/2/4 74/2/4 97/2/4
f 74/1/4 89/1/4 98/1/4
f 97/2/4 74/2/4 98/2/4
f 90/4/4 91/4/4 99/4/4
f 98/1/4 89/1/4 99/1/4
f 89/4/4 90/4/4 99/4/4
f 91/1/4 92/1/4 100/1/4
f 99/4/4 91/4/4 100/4/4
f 93/4/4 94/4/4 101/4/4
f 100/1/4 92/1/4 101/1/4
f 92/4/4 93/4/4 101/4/4
f 94/1/4 95/1/4 102/1/4
f 101/4/4 94/4/4 102/4/4
f 95/4/4 96/4/4 103/4/4
f 102/1/4 95/1/4 103/1/4
f 96/4/4 88/4/4 104/4/4
f 103/4/4 96/4/4 104/4/4
f 88/4/4 80/4/4 104/4/4
f 107/2/5 106/2/5 105/2/5
f 108/2/5 106/2/5 107/2/5
f 109/4/6 110/4/6 111/4/6
f 111/4/6 110/4/6 112/4/6
f 111/5/6 112/5/6 113/5/6
f 113/5/6 112/5/6 114/5/6
f 113/4/6 114/4/6 115/4/6
f 115/4/6 114/4/6 116/4/6
