# MagicaVoxel @ Ephtracy

# group
o 

# material
mtllib UZI-1.mtl
usemtl palette

# normals
vn -1 0 0
vn 1 0 0
vn 0 0 1
vn 0 0 -1
vn 0 -1 0
vn 0 1 0

# texcoords
vt 0.787109 0.5
vt 0.814453 0.5
vt 0.845703 0.5
vt 0.884766 0.5

# verts
v 11.4 4 0.2
v 11.4 4 -0.2
v 11.4 4.8 0.2
v 11.4 4.8 -0.2
v 14.2 4 0.2
v 14.2 4 -0.2
v 14.2 4.3 0.2
v 14.2 4.3 0.1
v 14.2 4.3 -0.1
v 14.2 4.3 -0.2
v 14.2 4.4 0.1
v 14.2 4.4 -0.1
v 14.2 4.8 0.2
v 14.2 4.8 -0.2
v 11.4 4 0.2
v 11.4 4.8 0.2
v 11.6 4.2 0.2
v 11.6 4.3 0.2
v 11.7 4.4 0.2
v 11.7 4.5 0.2
v 11.7 4.6 0.2
v 11.7 4.7 0.2
v 12.3 4.2 0.2
v 12.3 4.3 0.2
v 13.1 4 0.2
v 13.1 4.3 0.2
v 13.1 4.4 0.2
v 13.1 4.5 0.2
v 13.1 4.6 0.2
v 13.1 4.7 0.2
v 13.2 4 0.2
v 13.2 4.3 0.2
v 13.2 4.4 0.2
v 13.3 4 0.2
v 13.3 4.3 0.2
v 13.3 4.4 0.2
v 13.4 4 0.2
v 13.4 4.3 0.2
v 13.4 4.4 0.2
v 13.5 4 0.2
v 13.5 4.3 0.2
v 13.5 4.4 0.2
v 13.5 4.5 0.2
v 13.5 4.6 0.2
v 13.6 4 0.2
v 13.6 4.3 0.2
v 13.6 4.4 0.2
v 13.7 4 0.2
v 13.7 4.3 0.2
v 13.7 4.4 0.2
v 13.8 4 0.2
v 13.8 4.3 0.2
v 13.8 4.4 0.2
v 13.9 4 0.2
v 13.9 4.3 0.2
v 13.9 4.4 0.2
v 14 4 0.2
v 14 4.3 0.2
v 14 4.4 0.2
v 14 4.5 0.2
v 14 4.6 0.2
v 14.1 4 0.2
v 14.1 4.3 0.2
v 14.1 4.4 0.2
v 14.2 4 0.2
v 14.2 4.3 0.2
v 14.2 4.8 0.2
v 11.4 4 -0.2
v 11.4 4.8 -0.2
v 11.6 4.2 -0.2
v 11.6 4.3 -0.2
v 11.7 4.4 -0.2
v 11.7 4.5 -0.2
v 11.7 4.6 -0.2
v 11.7 4.7 -0.2
v 12.3 4.2 -0.2
v 12.3 4.3 -0.2
v 13.1 4 -0.2
v 13.1 4.3 -0.2
v 13.1 4.4 -0.2
v 13.1 4.5 -0.2
v 13.1 4.6 -0.2
v 13.1 4.7 -0.2
v 13.2 4 -0.2
v 13.2 4.3 -0.2
v 13.2 4.4 -0.2
v 13.3 4 -0.2
v 13.3 4.3 -0.2
v 13.3 4.4 -0.2
v 13.4 4 -0.2
v 13.4 4.3 -0.2
v 13.4 4.4 -0.2
v 13.5 4 -0.2
v 13.5 4.3 -0.2
v 13.5 4.4 -0.2
v 13.5 4.5 -0.2
v 13.5 4.6 -0.2
v 13.6 4 -0.2
v 13.6 4.3 -0.2
v 13.6 4.4 -0.2
v 13.7 4 -0.2
v 13.7 4.3 -0.2
v 13.7 4.4 -0.2
v 13.8 4 -0.2
v 13.8 4.3 -0.2
v 13.8 4.4 -0.2
v 13.9 4 -0.2
v 13.9 4.3 -0.2
v 13.9 4.4 -0.2
v 14 4 -0.2
v 14 4.3 -0.2
v 14 4.4 -0.2
v 14 4.5 -0.2
v 14 4.6 -0.2
v 14.1 4 -0.2
v 14.1 4.3 -0.2
v 14.1 4.4 -0.2
v 14.2 4 -0.2
v 14.2 4.3 -0.2
v 14.2 4.8 -0.2
v 11.4 4 0.2
v 13.1 4 0.2
v 13.2 4 0.2
v 13.3 4 0.2
v 13.4 4 0.2
v 13.5 4 0.2
v 13.6 4 0.2
v 13.7 4 0.2
v 13.8 4 0.2
v 13.9 4 0.2
v 14 4 0.2
v 14.1 4 0.2
v 14.2 4 0.2
v 11.4 4 -0.2
v 13.1 4 -0.2
v 13.2 4 -0.2
v 13.3 4 -0.2
v 13.4 4 -0.2
v 13.5 4 -0.2
v 13.6 4 -0.2
v 13.7 4 -0.2
v 13.8 4 -0.2
v 13.9 4 -0.2
v 14 4 -0.2
v 14.1 4 -0.2
v 14.2 4 -0.2
v 11.4 4.8 0.2
v 14.2 4.8 0.2
v 11.4 4.8 -0.2
v 14.2 4.8 -0.2

# faces
f 3/3/1 2/3/1 1/3/1
f 4/3/1 2/3/1 3/3/1
f 5/1/2 6/1/2 7/1/2
f 7/1/2 6/1/2 8/1/2
f 8/1/2 6/1/2 9/1/2
f 9/1/2 6/1/2 10/1/2
f 7/3/2 8/3/2 11/3/2
f 8/1/2 9/1/2 11/1/2
f 9/3/2 10/3/2 12/3/2
f 11/1/2 9/1/2 12/1/2
f 7/3/2 11/3/2 13/3/2
f 11/3/2 12/3/2 13/3/2
f 12/3/2 10/3/2 14/3/2
f 13/3/2 12/3/2 14/3/2
f 17/3/3 16/3/3 15/3/3
f 18/3/3 16/3/3 17/3/3
f 19/3/3 16/3/3 18/3/3
f 20/3/3 16/3/3 19/3/3
f 21/3/3 16/3/3 20/3/3
f 22/3/3 16/3/3 21/3/3
f 23/3/3 17/3/3 15/3/3
f 23/2/3 18/2/3 17/2/3
f 24/3/3 19/3/3 18/3/3
f 24/2/3 18/2/3 23/2/3
f 25/3/3 23/3/3 15/3/3
f 25/3/3 24/3/3 23/3/3
f 26/3/3 19/3/3 24/3/3
f 26/3/3 24/3/3 25/3/3
f 27/2/3 20/2/3 19/2/3
f 27/3/3 19/3/3 26/3/3
f 28/3/3 21/3/3 20/3/3
f 28/2/3 20/2/3 27/2/3
f 29/2/3 22/2/3 21/2/3
f 29/3/3 21/3/3 28/3/3
f 30/3/3 16/3/3 22/3/3
f 30/2/3 22/2/3 29/2/3
f 31/1/3 26/1/3 25/1/3
f 32/3/3 29/3/3 28/3/3
f 32/1/3 26/1/3 31/1/3
f 32/3/3 28/3/3 27/3/3
f 32/3/3 30/3/3 29/3/3
f 32/3/3 27/3/3 26/3/3
f 33/3/3 30/3/3 32/3/3
f 34/4/3 32/4/3 31/4/3
f 35/1/3 33/1/3 32/1/3
f 35/4/3 32/4/3 34/4/3
f 36/3/3 30/3/3 33/3/3
f 36/1/3 33/1/3 35/1/3
f 37/1/3 35/1/3 34/1/3
f 38/3/3 36/3/3 35/3/3
f 38/1/3 35/1/3 37/1/3
f 39/3/3 30/3/3 36/3/3
f 39/3/3 36/3/3 38/3/3
f 40/4/3 38/4/3 37/4/3
f 41/1/3 39/1/3 38/1/3
f 41/4/3 38/4/3 40/4/3
f 42/3/3 30/3/3 39/3/3
f 42/1/3 39/1/3 41/1/3
f 43/3/3 30/3/3 42/3/3
f 44/3/3 30/3/3 43/3/3
f 45/1/3 41/1/3 40/1/3
f 46/3/3 42/3/3 41/3/3
f 46/1/3 41/1/3 45/1/3
f 46/3/3 43/3/3 42/3/3
f 47/3/3 43/3/3 46/3/3
f 48/4/3 46/4/3 45/4/3
f 49/1/3 47/1/3 46/1/3
f 49/4/3 46/4/3 48/4/3
f 50/3/3 43/3/3 47/3/3
f 50/1/3 47/1/3 49/1/3
f 51/1/3 49/1/3 48/1/3
f 52/3/3 50/3/3 49/3/3
f 52/1/3 49/1/3 51/1/3
f 53/3/3 43/3/3 50/3/3
f 53/3/3 50/3/3 52/3/3
f 54/4/3 52/4/3 51/4/3
f 55/1/3 53/1/3 52/1/3
f 55/4/3 52/4/3 54/4/3
f 56/3/3 43/3/3 53/3/3
f 56/1/3 53/1/3 55/1/3
f 57/1/3 55/1/3 54/1/3
f 58/3/3 56/3/3 55/3/3
f 58/1/3 55/1/3 57/1/3
f 59/3/3 43/3/3 56/3/3
f 59/3/3 56/3/3 58/3/3
f 60/2/3 44/2/3 43/2/3
f 60/3/3 43/3/3 59/3/3
f 61/3/3 30/3/3 44/3/3
f 61/2/3 44/2/3 60/2/3
f 62/4/3 58/4/3 57/4/3
f 63/1/3 59/1/3 58/1/3
f 63/4/3 58/4/3 62/4/3
f 64/3/3 60/3/3 59/3/3
f 64/1/3 59/1/3 63/1/3
f 64/3/3 61/3/3 60/3/3
f 65/1/3 63/1/3 62/1/3
f 66/3/3 64/3/3 63/3/3
f 66/1/3 63/1/3 65/1/3
f 67/3/3 16/3/3 30/3/3
f 67/3/3 64/3/3 66/3/3
f 67/3/3 61/3/3 64/3/3
f 67/3/3 30/3/3 61/3/3
f 68/3/4 69/3/4 70/3/4
f 70/3/4 69/3/4 71/3/4
f 71/3/4 69/3/4 72/3/4
f 72/3/4 69/3/4 73/3/4
f 73/3/4 69/3/4 74/3/4
f 74/3/4 69/3/4 75/3/4
f 68/3/4 70/3/4 76/3/4
f 70/2/4 71/2/4 76/2/4
f 71/3/4 72/3/4 77/3/4
f 76/2/4 71/2/4 77/2/4
f 68/3/4 76/3/4 78/3/4
f 76/3/4 77/3/4 78/3/4
f 77/3/4 72/3/4 79/3/4
f 78/3/4 77/3/4 79/3/4
f 72/2/4 73/2/4 80/2/4
f 79/3/4 72/3/4 80/3/4
f 73/3/4 74/3/4 81/3/4
f 80/2/4 73/2/4 81/2/4
f 74/2/4 75/2/4 82/2/4
f 81/3/4 74/3/4 82/3/4
f 75/3/4 69/3/4 83/3/4
f 82/2/4 75/2/4 83/2/4
f 78/1/4 79/1/4 84/1/4
f 81/3/4 82/3/4 85/3/4
f 84/1/4 79/1/4 85/1/4
f 80/3/4 81/3/4 85/3/4
f 82/3/4 83/3/4 85/3/4
f 79/3/4 80/3/4 85/3/4
f 85/3/4 83/3/4 86/3/4
f 84/4/4 85/4/4 87/4/4
f 85/1/4 86/1/4 88/1/4
f 87/4/4 85/4/4 88/4/4
f 86/3/4 83/3/4 89/3/4
f 88/1/4 86/1/4 89/1/4
f 87/1/4 88/1/4 90/1/4
f 88/3/4 89/3/4 91/3/4
f 90/1/4 88/1/4 91/1/4
f 89/3/4 83/3/4 92/3/4
f 91/3/4 89/3/4 92/3/4
f 90/4/4 91/4/4 93/4/4
f 91/1/4 92/1/4 94/1/4
f 93/4/4 91/4/4 94/4/4
f 92/3/4 83/3/4 95/3/4
f 94/1/4 92/1/4 95/1/4
f 95/3/4 83/3/4 96/3/4
f 96/3/4 83/3/4 97/3/4
f 93/1/4 94/1/4 98/1/4
f 94/3/4 95/3/4 99/3/4
f 98/1/4 94/1/4 99/1/4
f 95/3/4 96/3/4 99/3/4
f 99/3/4 96/3/4 100/3/4
f 98/4/4 99/4/4 101/4/4
f 99/1/4 100/1/4 102/1/4
f 101/4/4 99/4/4 102/4/4
f 100/3/4 96/3/4 103/3/4
f 102/1/4 100/1/4 103/1/4
f 101/1/4 102/1/4 104/1/4
f 102/3/4 103/3/4 105/3/4
f 104/1/4 102/1/4 105/1/4
f 103/3/4 96/3/4 106/3/4
f 105/3/4 103/3/4 106/3/4
f 104/4/4 105/4/4 107/4/4
f 105/1/4 106/1/4 108/1/4
f 107/4/4 105/4/4 108/4/4
f 106/3/4 96/3/4 109/3/4
f 108/1/4 106/1/4 109/1/4
f 107/1/4 108/1/4 110/1/4
f 108/3/4 109/3/4 111/3/4
f 110/1/4 108/1/4 111/1/4
f 109/3/4 96/3/4 112/3/4
f 111/3/4 109/3/4 112/3/4
f 96/2/4 97/2/4 113/2/4
f 112/3/4 96/3/4 113/3/4
f 97/3/4 83/3/4 114/3/4
f 113/2/4 97/2/4 114/2/4
f 110/4/4 111/4/4 115/4/4
f 111/1/4 112/1/4 116/1/4
f 115/4/4 111/4/4 116/4/4
f 112/3/4 113/3/4 117/3/4
f 116/1/4 112/1/4 117/1/4
f 113/3/4 114/3/4 117/3/4
f 115/1/4 116/1/4 118/1/4
f 116/3/4 117/3/4 119/3/4
f 118/1/4 116/1/4 119/1/4
f 83/3/4 69/3/4 120/3/4
f 119/3/4 117/3/4 120/3/4
f 117/3/4 114/3/4 120/3/4
f 114/3/4 83/3/4 120/3/4
f 134/3/5 122/3/5 121/3/5
f 135/1/5 123/1/5 122/1/5
f 135/3/5 122/3/5 134/3/5
f 136/4/5 124/4/5 123/4/5
f 136/1/5 123/1/5 135/1/5
f 137/1/5 125/1/5 124/1/5
f 137/4/5 124/4/5 136/4/5
f 138/4/5 126/4/5 125/4/5
f 138/1/5 125/1/5 137/1/5
f 139/1/5 127/1/5 126/1/5
f 139/4/5 126/4/5 138/4/5
f 140/4/5 128/4/5 127/4/5
f 140/1/5 127/1/5 139/1/5
f 141/1/5 129/1/5 128/1/5
f 141/4/5 128/4/5 140/4/5
f 142/4/5 130/4/5 129/4/5
f 142/1/5 129/1/5 141/1/5
f 143/1/5 131/1/5 130/1/5
f 143/4/5 130/4/5 142/4/5
f 144/4/5 132/4/5 131/4/5
f 144/1/5 131/1/5 143/1/5
f 145/1/5 133/1/5 132/1/5
f 145/4/5 132/4/5 144/4/5
f 146/1/5 133/1/5 145/1/5
f 147/3/6 148/3/6 149/3/6
f 149/3/6 148/3/6 150/3/6
