# MagicaVoxel @ Ephtracy

# group
o 

# material
mtllib AWP-2.mtl
usemtl palette

# normals
vn -1 0 0
vn 1 0 0
vn 0 0 1
vn 0 0 -1
vn 0 -1 0
vn 0 1 0

# texcoords
vt 0.306641 0.5
vt 0.380859 0.5

# verts
v -0.3 2.7 0.4
v -0.3 2.7 0.1
v -0.3 2.9 0.4
v -0.3 2.9 0.1
v -0.2 2.4 1.3
v -0.2 2.4 1.2
v -0.2 2.4 0.6
v -0.2 2.4 0.5
v -0.2 2.5 1.3
v -0.2 2.5 1.2
v -0.2 2.5 0.6
v -0.2 2.5 0.5
v -0.2 2.6 1.3
v -0.2 2.6 1.2
v -0.2 2.6 0.6
v -0.2 2.6 0.5
v -0.2 2.6 0.4
v -0.2 2.6 0.1
v -0.2 2.7 1.5
v -0.2 2.7 1.3
v -0.2 2.7 1.2
v -0.2 2.7 0.6
v -0.2 2.7 0.5
v -0.2 2.7 0.4
v -0.2 2.7 0.1
v -0.2 2.9 1.5
v -0.2 2.9 0.4
v -0.2 2.9 0.1
v -0.2 3 0.4
v -0.2 3 0.1
v -0.1 2.5 1.3
v -0.1 2.5 1.2
v -0.1 2.5 0.6
v -0.1 2.5 0.5
v -0.1 2.5 0.4
v -0.1 2.5 0.1
v -0.1 2.6 1.5
v -0.1 2.6 1.3
v -0.1 2.6 1.2
v -0.1 2.6 0.6
v -0.1 2.6 0.5
v -0.1 2.6 0.4
v -0.1 2.6 0.1
v -0.1 2.7 1.5
v -0.1 2.7 1.3
v -0.1 2.7 1.2
v -0.1 2.7 0.6
v -0.1 2.7 0.5
v -0.1 2.7 0.4
v -0.1 2.9 1.5
v -0.1 2.9 0.4
v -0.1 3 1.5
v -0.1 3 0.4
v -0.1 3 0.1
v -0.1 3.1 0.4
v -0.1 3.1 0.1
v 0.1 2.4 1.3
v 0.1 2.4 1.2
v 0.1 2.4 0.6
v 0.1 2.4 0.5
v 0.1 2.5 1.3
v 0.1 2.5 1.2
v 0.1 2.5 0.6
v 0.1 2.5 0.5
v 0.1 2.6 0.4
v 0.1 2.6 0.1
v 0.1 2.7 1.5
v 0.1 2.7 0.4
v 0.1 2.7 0.1
v 0.1 2.9 1.5
v 0.1 2.9 0.4
v 0.1 2.9 0.1
v 0.1 3 0.4
v 0.1 3 0.1
v 0.2 2.7 0.4
v 0.2 2.7 0.1
v 0.2 2.9 0.4
v 0.2 2.9 0.1
v -0.2 2.7 0.4
v -0.2 2.7 0.1
v -0.2 2.9 0.4
v -0.2 2.9 0.1
v -0.1 2.4 1.3
v -0.1 2.4 1.2
v -0.1 2.4 0.6
v -0.1 2.4 0.5
v -0.1 2.5 1.3
v -0.1 2.5 1.2
v -0.1 2.5 0.6
v -0.1 2.5 0.5
v -0.1 2.6 0.4
v -0.1 2.6 0.1
v -0.1 2.7 1.5
v -0.1 2.7 0.4
v -0.1 2.7 0.1
v -0.1 2.9 1.5
v -0.1 2.9 0.4
v -0.1 2.9 0.1
v -0.1 3 0.4
v -0.1 3 0.1
v 0.1 2.5 1.3
v 0.1 2.5 1.2
v 0.1 2.5 0.6
v 0.1 2.5 0.5
v 0.1 2.5 0.4
v 0.1 2.5 0.1
v 0.1 2.6 1.5
v 0.1 2.6 1.3
v 0.1 2.6 1.2
v 0.1 2.6 0.6
v 0.1 2.6 0.5
v 0.1 2.6 0.4
v 0.1 2.6 0.1
v 0.1 2.7 1.5
v 0.1 2.7 1.3
v 0.1 2.7 1.2
v 0.1 2.7 0.6
v 0.1 2.7 0.5
v 0.1 2.7 0.4
v 0.1 2.9 1.5
v 0.1 2.9 0.4
v 0.1 3 1.5
v 0.1 3 0.4
v 0.1 3 0.1
v 0.1 3.1 0.4
v 0.1 3.1 0.1
v 0.2 2.4 1.3
v 0.2 2.4 1.2
v 0.2 2.4 0.6
v 0.2 2.4 0.5
v 0.2 2.5 1.3
v 0.2 2.5 1.2
v 0.2 2.5 0.6
v 0.2 2.5 0.5
v 0.2 2.6 1.3
v 0.2 2.6 1.2
v 0.2 2.6 0.6
v 0.2 2.6 0.5
v 0.2 2.6 0.4
v 0.2 2.6 0.1
v 0.2 2.7 1.5
v 0.2 2.7 1.3
v 0.2 2.7 1.2
v 0.2 2.7 0.6
v 0.2 2.7 0.5
v 0.2 2.7 0.4
v 0.2 2.7 0.1
v 0.2 2.9 1.5
v 0.2 2.9 0.4
v 0.2 2.9 0.1
v 0.2 3 0.4
v 0.2 3 0.1
v 0.3 2.7 0.4
v 0.3 2.7 0.1
v 0.3 2.9 0.4
v 0.3 2.9 0.1
v -0.2 2.7 1.5
v -0.2 2.9 1.5
v -0.1 2.6 1.5
v -0.1 2.7 1.5
v -0.1 2.9 1.5
v -0.1 3 1.5
v 0.1 2.6 1.5
v 0.1 2.7 1.5
v 0.1 2.9 1.5
v 0.1 3 1.5
v 0.2 2.7 1.5
v 0.2 2.9 1.5
v -0.2 2.4 1.3
v -0.2 2.5 1.3
v -0.2 2.6 1.3
v -0.2 2.7 1.3
v -0.1 2.4 1.3
v -0.1 2.5 1.3
v -0.1 2.6 1.3
v -0.1 2.7 1.3
v 0.1 2.4 1.3
v 0.1 2.5 1.3
v 0.1 2.6 1.3
v 0.1 2.7 1.3
v 0.2 2.4 1.3
v 0.2 2.5 1.3
v 0.2 2.6 1.3
v 0.2 2.7 1.3
v -0.2 2.4 0.6
v -0.2 2.5 0.6
v -0.2 2.6 0.6
v -0.2 2.7 0.6
v -0.1 2.4 0.6
v -0.1 2.5 0.6
v -0.1 2.6 0.6
v -0.1 2.7 0.6
v 0.1 2.4 0.6
v 0.1 2.5 0.6
v 0.1 2.6 0.6
v 0.1 2.7 0.6
v 0.2 2.4 0.6
v 0.2 2.5 0.6
v 0.2 2.6 0.6
v 0.2 2.7 0.6
v -0.3 2.7 0.4
v -0.3 2.9 0.4
v -0.2 2.6 0.4
v -0.2 2.7 0.4
v -0.2 2.9 0.4
v -0.2 3 0.4
v -0.1 2.5 0.4
v -0.1 2.6 0.4
v -0.1 2.7 0.4
v -0.1 2.9 0.4
v -0.1 3 0.4
v -0.1 3.1 0.4
v 0.1 2.5 0.4
v 0.1 2.6 0.4
v 0.1 2.7 0.4
v 0.1 2.9 0.4
v 0.1 3 0.4
v 0.1 3.1 0.4
v 0.2 2.6 0.4
v 0.2 2.7 0.4
v 0.2 2.9 0.4
v 0.2 3 0.4
v 0.3 2.7 0.4
v 0.3 2.9 0.4
v -0.2 2.4 1.2
v -0.2 2.5 1.2
v -0.2 2.6 1.2
v -0.2 2.7 1.2
v -0.1 2.4 1.2
v -0.1 2.5 1.2
v -0.1 2.6 1.2
v -0.1 2.7 1.2
v 0.1 2.4 1.2
v 0.1 2.5 1.2
v 0.1 2.6 1.2
v 0.1 2.7 1.2
v 0.2 2.4 1.2
v 0.2 2.5 1.2
v 0.2 2.6 1.2
v 0.2 2.7 1.2
v -0.2 2.4 0.5
v -0.2 2.5 0.5
v -0.2 2.6 0.5
v -0.2 2.7 0.5
v -0.1 2.4 0.5
v -0.1 2.5 0.5
v -0.1 2.6 0.5
v -0.1 2.7 0.5
v 0.1 2.4 0.5
v 0.1 2.5 0.5
v 0.1 2.6 0.5
v 0.1 2.7 0.5
v 0.2 2.4 0.5
v 0.2 2.5 0.5
v 0.2 2.6 0.5
v 0.2 2.7 0.5
v -0.2 2.7 0.4
v -0.2 2.9 0.4
v -0.1 2.6 0.4
v -0.1 2.7 0.4
v -0.1 2.9 0.4
v -0.1 3 0.4
v 0.1 2.6 0.4
v 0.1 2.7 0.4
v 0.1 2.9 0.4
v 0.1 3 0.4
v 0.2 2.7 0.4
v 0.2 2.9 0.4
v -0.3 2.7 0.1
v -0.3 2.9 0.1
v -0.2 2.6 0.1
v -0.2 2.7 0.1
v -0.2 2.9 0.1
v -0.2 3 0.1
v -0.1 2.5 0.1
v -0.1 2.6 0.1
v -0.1 2.7 0.1
v -0.1 2.9 0.1
v -0.1 3 0.1
v -0.1 3.1 0.1
v 0.1 2.5 0.1
v 0.1 2.6 0.1
v 0.1 2.7 0.1
v 0.1 2.9 0.1
v 0.1 3 0.1
v 0.1 3.1 0.1
v 0.2 2.6 0.1
v 0.2 2.7 0.1
v 0.2 2.9 0.1
v 0.2 3 0.1
v 0.3 2.7 0.1
v 0.3 2.9 0.1
v -0.2 2.4 1.3
v -0.1 2.4 1.3
v 0.1 2.4 1.3
v 0.2 2.4 1.3
v -0.2 2.4 1.2
v -0.1 2.4 1.2
v 0.1 2.4 1.2
v 0.2 2.4 1.2
v -0.2 2.4 0.6
v -0.1 2.4 0.6
v 0.1 2.4 0.6
v 0.2 2.4 0.6
v -0.2 2.4 0.5
v -0.1 2.4 0.5
v 0.1 2.4 0.5
v 0.2 2.4 0.5
v -0.1 2.5 1.3
v 0.1 2.5 1.3
v -0.1 2.5 1.2
v 0.1 2.5 1.2
v -0.1 2.5 0.6
v 0.1 2.5 0.6
v -0.1 2.5 0.5
v 0.1 2.5 0.5
v -0.1 2.5 0.4
v 0.1 2.5 0.4
v -0.1 2.5 0.1
v 0.1 2.5 0.1
v -0.1 2.6 1.5
v 0.1 2.6 1.5
v -0.2 2.6 1.3
v -0.1 2.6 1.3
v 0.1 2.6 1.3
v 0.2 2.6 1.3
v -0.2 2.6 1.2
v -0.1 2.6 1.2
v 0.1 2.6 1.2
v 0.2 2.6 1.2
v -0.2 2.6 0.6
v -0.1 2.6 0.6
v 0.1 2.6 0.6
v 0.2 2.6 0.6
v -0.2 2.6 0.5
v -0.1 2.6 0.5
v 0.1 2.6 0.5
v 0.2 2.6 0.5
v -0.2 2.6 0.4
v -0.1 2.6 0.4
v 0.1 2.6 0.4
v 0.2 2.6 0.4
v -0.2 2.6 0.1
v -0.1 2.6 0.1
v 0.1 2.6 0.1
v 0.2 2.6 0.1
v -0.2 2.7 1.5
v -0.1 2.7 1.5
v 0.1 2.7 1.5
v 0.2 2.7 1.5
v -0.2 2.7 1.3
v -0.1 2.7 1.3
v 0.1 2.7 1.3
v 0.2 2.7 1.3
v -0.2 2.7 1.2
v -0.1 2.7 1.2
v 0.1 2.7 1.2
v 0.2 2.7 1.2
v -0.2 2.7 0.6
v -0.1 2.7 0.6
v 0.1 2.7 0.6
v 0.2 2.7 0.6
v -0.2 2.7 0.5
v -0.1 2.7 0.5
v 0.1 2.7 0.5
v 0.2 2.7 0.5
v -0.3 2.7 0.4
v -0.2 2.7 0.4
v -0.1 2.7 0.4
v 0.1 2.7 0.4
v 0.2 2.7 0.4
v 0.3 2.7 0.4
v -0.3 2.7 0.1
v -0.2 2.7 0.1
v 0.2 2.7 0.1
v 0.3 2.7 0.1
v -0.1 2.9 1.5
v 0.1 2.9 1.5
v -0.2 2.9 0.4
v -0.1 2.9 0.4
v 0.1 2.9 0.4
v 0.2 2.9 0.4
v -0.2 2.9 0.1
v -0.1 2.9 0.1
v 0.1 2.9 0.1
v 0.2 2.9 0.1
v -0.1 3 0.4
v 0.1 3 0.4
v -0.1 3 0.1
v 0.1 3 0.1
v -0.2 2.5 1.3
v -0.1 2.5 1.3
v 0.1 2.5 1.3
v 0.2 2.5 1.3
v -0.2 2.5 1.2
v -0.1 2.5 1.2
v 0.1 2.5 1.2
v 0.2 2.5 1.2
v -0.2 2.5 0.6
v -0.1 2.5 0.6
v 0.1 2.5 0.6
v 0.2 2.5 0.6
v -0.2 2.5 0.5
v -0.1 2.5 0.5
v 0.1 2.5 0.5
v 0.2 2.5 0.5
v -0.1 2.6 0.4
v 0.1 2.6 0.4
v -0.1 2.6 0.1
v 0.1 2.6 0.1
v -0.1 2.7 1.5
v 0.1 2.7 1.5
v -0.2 2.7 0.4
v -0.1 2.7 0.4
v 0.1 2.7 0.4
v 0.2 2.7 0.4
v -0.2 2.7 0.1
v -0.1 2.7 0.1
v 0.1 2.7 0.1
v 0.2 2.7 0.1
v -0.2 2.9 1.5
v -0.1 2.9 1.5
v 0.1 2.9 1.5
v 0.2 2.9 1.5
v -0.3 2.9 0.4
v -0.2 2.9 0.4
v -0.1 2.9 0.4
v 0.1 2.9 0.4
v 0.2 2.9 0.4
v 0.3 2.9 0.4
v -0.3 2.9 0.1
v -0.2 2.9 0.1
v 0.2 2.9 0.1
v 0.3 2.9 0.1
v -0.1 3 1.5
v 0.1 3 1.5
v -0.2 3 0.4
v -0.1 3 0.4
v 0.1 3 0.4
v 0.2 3 0.4
v -0.2 3 0.1
v -0.1 3 0.1
v 0.1 3 0.1
v 0.2 3 0.1
v -0.1 3.1 0.4
v 0.1 3.1 0.4
v -0.1 3.1 0.1
v 0.1 3.1 0.1

# faces
f 3/1/1 2/1/1 1/1/1
f 4/1/1 2/1/1 3/1/1
f 9/2/1 6/2/1 5/2/1
f 10/2/1 6/2/1 9/2/1
f 11/2/1 8/2/1 7/2/1
f 12/2/1 8/2/1 11/2/1
f 20/2/1 14/2/1 13/2/1
f 21/2/1 14/2/1 20/2/1
f 22/2/1 16/2/1 15/2/1
f 23/2/1 16/2/1 22/2/1
f 24/1/1 18/1/1 17/1/1
f 25/1/1 18/1/1 24/1/1
f 26/1/1 21/1/1 20/1/1
f 26/1/1 23/1/1 22/1/1
f 26/1/1 24/1/1 23/1/1
f 26/1/1 20/1/1 19/1/1
f 26/1/1 22/1/1 21/1/1
f 27/1/1 24/1/1 26/1/1
f 29/1/1 28/1/1 27/1/1
f 30/1/1 28/1/1 29/1/1
f 38/2/1 32/2/1 31/2/1
f 39/2/1 32/2/1 38/2/1
f 40/2/1 34/2/1 33/2/1
f 41/2/1 34/2/1 40/2/1
f 42/1/1 36/1/1 35/1/1
f 43/1/1 36/1/1 42/1/1
f 44/1/1 38/1/1 37/1/1
f 45/1/1 38/1/1 44/1/1
f 46/1/1 40/1/1 39/1/1
f 47/1/1 40/1/1 46/1/1
f 48/1/1 42/1/1 41/1/1
f 49/1/1 42/1/1 48/1/1
f 52/1/1 51/1/1 50/1/1
f 53/1/1 51/1/1 52/1/1
f 55/1/1 54/1/1 53/1/1
f 56/1/1 54/1/1 55/1/1
f 61/2/1 58/2/1 57/2/1
f 62/2/1 58/2/1 61/2/1
f 63/2/1 60/2/1 59/2/1
f 64/2/1 60/2/1 63/2/1
f 68/1/1 66/1/1 65/1/1
f 69/1/1 66/1/1 68/1/1
f 70/1/1 68/1/1 67/1/1
f 71/1/1 68/1/1 70/1/1
f 73/1/1 72/1/1 71/1/1
f 74/1/1 72/1/1 73/1/1
f 77/1/1 76/1/1 75/1/1
f 78/1/1 76/1/1 77/1/1
f 79/1/2 80/1/2 81/1/2
f 81/1/2 80/1/2 82/1/2
f 83/2/2 84/2/2 87/2/2
f 87/2/2 84/2/2 88/2/2
f 85/2/2 86/2/2 89/2/2
f 89/2/2 86/2/2 90/2/2
f 91/1/2 92/1/2 94/1/2
f 94/1/2 92/1/2 95/1/2
f 93/1/2 94/1/2 96/1/2
f 96/1/2 94/1/2 97/1/2
f 97/1/2 98/1/2 99/1/2
f 99/1/2 98/1/2 100/1/2
f 101/2/2 102/2/2 108/2/2
f 108/2/2 102/2/2 109/2/2
f 103/2/2 104/2/2 110/2/2
f 110/2/2 104/2/2 111/2/2
f 105/1/2 106/1/2 112/1/2
f 112/1/2 106/1/2 113/1/2
f 107/1/2 108/1/2 114/1/2
f 114/1/2 108/1/2 115/1/2
f 109/1/2 110/1/2 116/1/2
f 116/1/2 110/1/2 117/1/2
f 111/1/2 112/1/2 118/1/2
f 118/1/2 112/1/2 119/1/2
f 120/1/2 121/1/2 122/1/2
f 122/1/2 121/1/2 123/1/2
f 123/1/2 124/1/2 125/1/2
f 125/1/2 124/1/2 126/1/2
f 127/2/2 128/2/2 131/2/2
f 131/2/2 128/2/2 132/2/2
f 129/2/2 130/2/2 133/2/2
f 133/2/2 130/2/2 134/2/2
f 135/2/2 136/2/2 142/2/2
f 142/2/2 136/2/2 143/2/2
f 137/2/2 138/2/2 144/2/2
f 144/2/2 138/2/2 145/2/2
f 139/1/2 140/1/2 146/1/2
f 146/1/2 140/1/2 147/1/2
f 142/1/2 143/1/2 148/1/2
f 144/1/2 145/1/2 148/1/2
f 145/1/2 146/1/2 148/1/2
f 141/1/2 142/1/2 148/1/2
f 143/1/2 144/1/2 148/1/2
f 148/1/2 146/1/2 149/1/2
f 149/1/2 150/1/2 151/1/2
f 151/1/2 150/1/2 152/1/2
f 153/1/2 154/1/2 155/1/2
f 155/1/2 154/1/2 156/1/2
f 160/1/3 158/1/3 157/1/3
f 161/1/3 158/1/3 160/1/3
f 163/1/3 160/1/3 159/1/3
f 164/1/3 160/1/3 163/1/3
f 165/1/3 162/1/3 161/1/3
f 166/1/3 162/1/3 165/1/3
f 167/1/3 165/1/3 164/1/3
f 168/1/3 165/1/3 167/1/3
f 173/2/3 170/2/3 169/2/3
f 174/2/3 170/2/3 173/2/3
f 175/2/3 172/2/3 171/2/3
f 176/2/3 172/2/3 175/2/3
f 178/2/3 175/2/3 174/2/3
f 179/2/3 175/2/3 178/2/3
f 181/2/3 178/2/3 177/2/3
f 182/2/3 178/2/3 181/2/3
f 183/2/3 180/2/3 179/2/3
f 184/2/3 180/2/3 183/2/3
f 189/2/3 186/2/3 185/2/3
f 190/2/3 186/2/3 189/2/3
f 191/2/3 188/2/3 187/2/3
f 192/2/3 188/2/3 191/2/3
f 194/2/3 191/2/3 190/2/3
f 195/2/3 191/2/3 194/2/3
f 197/2/3 194/2/3 193/2/3
f 198/2/3 194/2/3 197/2/3
f 199/2/3 196/2/3 195/2/3
f 200/2/3 196/2/3 199/2/3
f 204/1/3 202/1/3 201/1/3
f 205/1/3 202/1/3 204/1/3
f 208/1/3 204/1/3 203/1/3
f 209/1/3 204/1/3 208/1/3
f 210/1/3 206/1/3 205/1/3
f 211/1/3 206/1/3 210/1/3
f 213/1/3 208/1/3 207/1/3
f 214/1/3 208/1/3 213/1/3
f 217/1/3 212/1/3 211/1/3
f 218/1/3 212/1/3 217/1/3
f 219/1/3 215/1/3 214/1/3
f 220/1/3 215/1/3 219/1/3
f 221/1/3 217/1/3 216/1/3
f 222/1/3 217/1/3 221/1/3
f 223/1/3 221/1/3 220/1/3
f 224/1/3 221/1/3 223/1/3
f 225/2/4 226/2/4 229/2/4
f 229/2/4 226/2/4 230/2/4
f 227/2/4 228/2/4 231/2/4
f 231/2/4 228/2/4 232/2/4
f 230/2/4 231/2/4 234/2/4
f 234/2/4 231/2/4 235/2/4
f 233/2/4 234/2/4 237/2/4
f 237/2/4 234/2/4 238/2/4
f 235/2/4 236/2/4 239/2/4
f 239/2/4 236/2/4 240/2/4
f 241/2/4 242/2/4 245/2/4
f 245/2/4 242/2/4 246/2/4
f 243/2/4 244/2/4 247/2/4
f 247/2/4 244/2/4 248/2/4
f 246/2/4 247/2/4 250/2/4
f 250/2/4 247/2/4 251/2/4
f 249/2/4 250/2/4 253/2/4
f 253/2/4 250/2/4 254/2/4
f 251/2/4 252/2/4 255/2/4
f 255/2/4 252/2/4 256/2/4
f 257/1/4 258/1/4 260/1/4
f 260/1/4 258/1/4 261/1/4
f 259/1/4 260/1/4 263/1/4
f 263/1/4 260/1/4 264/1/4
f 261/1/4 262/1/4 265/1/4
f 265/1/4 262/1/4 266/1/4
f 264/1/4 265/1/4 267/1/4
f 267/1/4 265/1/4 268/1/4
f 269/1/4 270/1/4 272/1/4
f 272/1/4 270/1/4 273/1/4
f 271/1/4 272/1/4 276/1/4
f 276/1/4 272/1/4 277/1/4
f 273/1/4 274/1/4 278/1/4
f 278/1/4 274/1/4 279/1/4
f 275/1/4 276/1/4 281/1/4
f 281/1/4 276/1/4 282/1/4
f 279/1/4 280/1/4 285/1/4
f 285/1/4 280/1/4 286/1/4
f 282/1/4 283/1/4 287/1/4
f 287/1/4 283/1/4 288/1/4
f 284/1/4 285/1/4 289/1/4
f 289/1/4 285/1/4 290/1/4
f 288/1/4 289/1/4 291/1/4
f 291/1/4 289/1/4 292/1/4
f 297/2/5 294/2/5 293/2/5
f 298/2/5 294/2/5 297/2/5
f 299/2/5 296/2/5 295/2/5
f 300/2/5 296/2/5 299/2/5
f 305/2/5 302/2/5 301/2/5
f 306/2/5 302/2/5 305/2/5
f 307/2/5 304/2/5 303/2/5
f 308/2/5 304/2/5 307/2/5
f 311/2/5 310/2/5 309/2/5
f 312/2/5 310/2/5 311/2/5
f 315/2/5 314/2/5 313/2/5
f 316/2/5 314/2/5 315/2/5
f 319/1/5 318/1/5 317/1/5
f 320/1/5 318/1/5 319/1/5
f 324/1/5 322/1/5 321/1/5
f 325/1/5 322/1/5 324/1/5
f 327/2/5 324/2/5 323/2/5
f 328/2/5 324/2/5 327/2/5
f 329/2/5 326/2/5 325/2/5
f 330/2/5 326/2/5 329/2/5
f 332/1/5 329/1/5 328/1/5
f 333/1/5 329/1/5 332/1/5
f 335/2/5 332/2/5 331/2/5
f 336/2/5 332/2/5 335/2/5
f 337/2/5 334/2/5 333/2/5
f 338/2/5 334/2/5 337/2/5
f 340/1/5 337/1/5 336/1/5
f 341/1/5 337/1/5 340/1/5
f 343/1/5 340/1/5 339/1/5
f 344/1/5 340/1/5 343/1/5
f 345/1/5 342/1/5 341/1/5
f 346/1/5 342/1/5 345/1/5
f 351/1/5 348/1/5 347/1/5
f 352/1/5 348/1/5 351/1/5
f 353/1/5 350/1/5 349/1/5
f 354/1/5 350/1/5 353/1/5
f 359/1/5 356/1/5 355/1/5
f 360/1/5 356/1/5 359/1/5
f 361/1/5 358/1/5 357/1/5
f 362/1/5 358/1/5 361/1/5
f 368/1/5 364/1/5 363/1/5
f 369/1/5 364/1/5 368/1/5
f 370/1/5 366/1/5 365/1/5
f 371/1/5 366/1/5 370/1/5
f 373/1/5 368/1/5 367/1/5
f 374/1/5 368/1/5 373/1/5
f 375/1/5 372/1/5 371/1/5
f 376/1/5 372/1/5 375/1/5
f 380/1/5 378/1/5 377/1/5
f 381/1/5 378/1/5 380/1/5
f 383/1/5 380/1/5 379/1/5
f 384/1/5 380/1/5 383/1/5
f 385/1/5 382/1/5 381/1/5
f 386/1/5 382/1/5 385/1/5
f 389/1/5 388/1/5 387/1/5
f 390/1/5 388/1/5 389/1/5
f 391/2/6 392/2/6 395/2/6
f 395/2/6 392/2/6 396/2/6
f 393/2/6 394/2/6 397/2/6
f 397/2/6 394/2/6 398/2/6
f 399/2/6 400/2/6 403/2/6
f 403/2/6 400/2/6 404/2/6
f 401/2/6 402/2/6 405/2/6
f 405/2/6 402/2/6 406/2/6
f 407/1/6 408/1/6 409/1/6
f 409/1/6 408/1/6 410/1/6
f 411/1/6 412/1/6 414/1/6
f 414/1/6 412/1/6 415/1/6
f 413/1/6 414/1/6 417/1/6
f 417/1/6 414/1/6 418/1/6
f 415/1/6 416/1/6 419/1/6
f 419/1/6 416/1/6 420/1/6
f 421/1/6 422/1/6 426/1/6
f 426/1/6 422/1/6 427/1/6
f 423/1/6 424/1/6 428/1/6
f 428/1/6 424/1/6 429/1/6
f 425/1/6 426/1/6 431/1/6
f 431/1/6 426/1/6 432/1/6
f 429/1/6 430/1/6 433/1/6
f 433/1/6 430/1/6 434/1/6
f 435/1/6 436/1/6 438/1/6
f 438/1/6 436/1/6 439/1/6
f 437/1/6 438/1/6 441/1/6
f 441/1/6 438/1/6 442/1/6
f 439/1/6 440/1/6 443/1/6
f 443/1/6 440/1/6 444/1/6
f 445/1/6 446/1/6 447/1/6
f 447/1/6 446/1/6 448/1/6
