# MagicaVoxel @ Ephtracy

# group
o 

# material
mtllib AK-3.mtl
usemtl palette

# normals
vn -1 0 0
vn 1 0 0
vn 0 0 1
vn 0 0 -1
vn 0 -1 0
vn 0 1 0

# texcoords
vt 0.556641 0.5
vt 0.630859 0.5
vt 0.634766 0.5

# verts
v -4.6 0.9 0.1
v -4.6 0.9 -0.1
v -4.6 1 0.1
v -4.6 1 -0.1
v -4.6 1.3 0.1
v -4.6 1.3 -0.1
v -4.5 0.8 0.1
v -4.5 0.8 -0.1
v -4.5 0.9 0.2
v -4.5 0.9 0.1
v -4.5 0.9 -0.1
v -4.5 0.9 -0.2
v -4.5 1 0.1
v -4.5 1 -0.1
v -4.5 1.2 0.2
v -4.5 1.2 0.1
v -4.5 1.2 -0.1
v -4.5 1.2 -0.2
v -4.5 1.3 0.2
v -4.5 1.3 0.1
v -4.5 1.3 -0.1
v -4.5 1.3 -0.2
v -4.5 1.5 0.1
v -4.5 1.5 -0.1
v -4.5 1.6 0.1
v -4.5 1.6 -0.1
v -4.5 1.7 0.1
v -4.5 1.7 -0.1
v -4.4 1.3 0.2
v -4.4 1.3 0.1
v -4.4 1.3 -0.1
v -4.4 1.3 -0.2
v -4.4 1.4 0.2
v -4.4 1.4 0.1
v -4.4 1.4 -0.1
v -4.4 1.4 -0.2
v -4.4 1.5 0.2
v -4.4 1.5 0.1
v -4.4 1.5 -0.1
v -4.4 1.5 -0.2
v -4.4 1.6 0.2
v -4.4 1.6 0.1
v -4.4 1.6 -0.1
v -4.4 1.6 -0.2
v -4.3 1.6 0.2
v -4.3 1.6 0.1
v -4.3 1.6 -0.1
v -4.3 1.6 -0.2
v -4.3 1.7 0.2
v -4.3 1.7 0.1
v -4.3 1.7 -0.1
v -4.3 1.7 -0.2
v -4.2 0.8 0.1
v -4.2 0.8 -0.1
v -4.2 0.9 0.2
v -4.2 0.9 0.1
v -4.2 0.9 -0.1
v -4.2 0.9 -0.2
v -4.2 1 0.2
v -4.2 1 0.1
v -4.2 1 -0.1
v -4.2 1 -0.2
v -4.1 0.9 0.1
v -4.1 0.9 -0.1
v -4.1 1 0.2
v -4.1 1 0.1
v -4.1 1 -0.1
v -4.1 1 -0.2
v -4.1 1.2 0.2
v -4.1 1.2 0.1
v -4.1 1.2 -0.1
v -4.1 1.2 -0.2
v -4.1 1.3 0.2
v -4.1 1.3 0.1
v -4.1 1.3 -0.1
v -4.1 1.3 -0.2
v -4.1 1.6 0.2
v -4.1 1.6 0.1
v -4.1 1.6 -0.1
v -4.1 1.6 -0.2
v -4.1 1.7 0.2
v -4.1 1.7 0.1
v -4.1 1.7 -0.1
v -4.1 1.7 -0.2
v -4 1 0.1
v -4 1 -0.1
v -4 1.3 0.2
v -4 1.3 0.1
v -4 1.3 -0.1
v -4 1.3 -0.2
v -4 1.4 0.2
v -4 1.4 0.1
v -4 1.4 -0.1
v -4 1.4 -0.2
v -4 1.6 0.2
v -4 1.6 0.1
v -4 1.6 -0.1
v -4 1.6 -0.2
v -3.9 1.3 0.1
v -3.9 1.3 -0.1
v -3.9 1.6 0.1
v -3.9 1.6 -0.1
v -3.9 1.7 0.1
v -3.9 1.7 -0.1
v -4.5 0.9 0.2
v -4.5 1.2 0.2
v -4.5 1.3 0.2
v -4.4 1 0.2
v -4.4 1.1 0.2
v -4.4 1.2 0.2
v -4.4 1.3 0.2
v -4.4 1.4 0.2
v -4.4 1.5 0.2
v -4.4 1.6 0.2
v -4.3 1.1 0.2
v -4.3 1.3 0.2
v -4.3 1.4 0.2
v -4.3 1.5 0.2
v -4.3 1.6 0.2
v -4.3 1.7 0.2
v -4.2 0.9 0.2
v -4.2 1 0.2
v -4.2 1.2 0.2
v -4.2 1.3 0.2
v -4.2 1.4 0.2
v -4.1 1 0.2
v -4.1 1.2 0.2
v -4.1 1.3 0.2
v -4.1 1.6 0.2
v -4.1 1.7 0.2
v -4 1.3 0.2
v -4 1.4 0.2
v -4 1.6 0.2
v -4.6 0.9 0.1
v -4.6 1 0.1
v -4.6 1.3 0.1
v -4.5 0.8 0.1
v -4.5 0.9 0.1
v -4.5 1 0.1
v -4.5 1.2 0.1
v -4.5 1.3 0.1
v -4.5 1.5 0.1
v -4.5 1.6 0.1
v -4.5 1.7 0.1
v -4.4 1.3 0.1
v -4.4 1.4 0.1
v -4.4 1.5 0.1
v -4.4 1.6 0.1
v -4.3 1.6 0.1
v -4.3 1.7 0.1
v -4.2 0.8 0.1
v -4.2 0.9 0.1
v -4.2 1 0.1
v -4.1 0.9 0.1
v -4.1 1 0.1
v -4.1 1.2 0.1
v -4.1 1.3 0.1
v -4.1 1.6 0.1
v -4.1 1.7 0.1
v -4 1 0.1
v -4 1.3 0.1
v -4 1.4 0.1
v -4 1.6 0.1
v -3.9 1.3 0.1
v -3.9 1.6 0.1
v -3.9 1.7 0.1
v -4.6 0.9 -0.1
v -4.6 1 -0.1
v -4.6 1.3 -0.1
v -4.5 0.8 -0.1
v -4.5 0.9 -0.1
v -4.5 1 -0.1
v -4.5 1.2 -0.1
v -4.5 1.3 -0.1
v -4.5 1.5 -0.1
v -4.5 1.6 -0.1
v -4.5 1.7 -0.1
v -4.4 1.3 -0.1
v -4.4 1.4 -0.1
v -4.4 1.5 -0.1
v -4.4 1.6 -0.1
v -4.3 1.6 -0.1
v -4.3 1.7 -0.1
v -4.2 0.8 -0.1
v -4.2 0.9 -0.1
v -4.2 1 -0.1
v -4.1 0.9 -0.1
v -4.1 1 -0.1
v -4.1 1.2 -0.1
v -4.1 1.3 -0.1
v -4.1 1.6 -0.1
v -4.1 1.7 -0.1
v -4 1 -0.1
v -4 1.3 -0.1
v -4 1.4 -0.1
v -4 1.6 -0.1
v -3.9 1.3 -0.1
v -3.9 1.6 -0.1
v -3.9 1.7 -0.1
v -4.5 0.9 -0.2
v -4.5 1.2 -0.2
v -4.5 1.3 -0.2
v -4.4 1 -0.2
v -4.4 1.1 -0.2
v -4.4 1.2 -0.2
v -4.4 1.3 -0.2
v -4.4 1.4 -0.2
v -4.4 1.5 -0.2
v -4.4 1.6 -0.2
v -4.3 1.1 -0.2
v -4.3 1.3 -0.2
v -4.3 1.4 -0.2
v -4.3 1.5 -0.2
v -4.3 1.6 -0.2
v -4.3 1.7 -0.2
v -4.2 0.9 -0.2
v -4.2 1 -0.2
v -4.2 1.2 -0.2
v -4.2 1.3 -0.2
v -4.2 1.4 -0.2
v -4.1 1 -0.2
v -4.1 1.2 -0.2
v -4.1 1.3 -0.2
v -4.1 1.6 -0.2
v -4.1 1.7 -0.2
v -4 1.3 -0.2
v -4 1.4 -0.2
v -4 1.6 -0.2
v -4.5 0.8 0.1
v -4.2 0.8 0.1
v -4.5 0.8 -0.1
v -4.2 0.8 -0.1
v -4.5 0.9 0.2
v -4.2 0.9 0.2
v -4.6 0.9 0.1
v -4.5 0.9 0.1
v -4.2 0.9 0.1
v -4.1 0.9 0.1
v -4.6 0.9 -0.1
v -4.5 0.9 -0.1
v -4.2 0.9 -0.1
v -4.1 0.9 -0.1
v -4.5 0.9 -0.2
v -4.2 0.9 -0.2
v -4.2 1 0.2
v -4.1 1 0.2
v -4.2 1 0.1
v -4.1 1 0.1
v -4 1 0.1
v -4.2 1 -0.1
v -4.1 1 -0.1
v -4 1 -0.1
v -4.2 1 -0.2
v -4.1 1 -0.2
v -4.1 1.3 0.2
v -4 1.3 0.2
v -4.1 1.3 0.1
v -4 1.3 0.1
v -3.9 1.3 0.1
v -4.1 1.3 -0.1
v -4 1.3 -0.1
v -3.9 1.3 -0.1
v -4.1 1.3 -0.2
v -4 1.3 -0.2
v -4.5 1.3 0.2
v -4.4 1.3 0.2
v -4.6 1.3 0.1
v -4.5 1.3 0.1
v -4.4 1.3 0.1
v -4.6 1.3 -0.1
v -4.5 1.3 -0.1
v -4.4 1.3 -0.1
v -4.5 1.3 -0.2
v -4.4 1.3 -0.2
v -4.4 1.6 0.2
v -4.3 1.6 0.2
v -4.1 1.6 0.2
v -4 1.6 0.2
v -4.4 1.6 0.1
v -4.3 1.6 0.1
v -4.1 1.6 0.1
v -4 1.6 0.1
v -4.4 1.6 -0.1
v -4.3 1.6 -0.1
v -4.1 1.6 -0.1
v -4 1.6 -0.1
v -4.4 1.6 -0.2
v -4.3 1.6 -0.2
v -4.1 1.6 -0.2
v -4 1.6 -0.2
v -4.3 1.7 0.2
v -4.1 1.7 0.2
v -4.5 1.7 0.1
v -4.3 1.7 0.1
v -4.1 1.7 0.1
v -3.9 1.7 0.1
v -4.5 1.7 -0.1
v -4.3 1.7 -0.1
v -4.1 1.7 -0.1
v -3.9 1.7 -0.1
v -4.3 1.7 -0.2
v -4.1 1.7 -0.2

# faces
f 3/3/1 2/3/1 1/3/1
f 4/3/1 2/3/1 3/3/1
f 5/2/1 4/2/1 3/2/1
f 6/2/1 4/2/1 5/2/1
f 10/3/1 8/3/1 7/3/1
f 11/3/1 8/3/1 10/3/1
f 13/3/1 10/3/1 9/3/1
f 14/3/1 12/3/1 11/3/1
f 15/3/1 13/3/1 9/3/1
f 16/3/1 13/3/1 15/3/1
f 17/3/1 12/3/1 14/3/1
f 18/3/1 12/3/1 17/3/1
f 19/2/1 16/2/1 15/2/1
f 20/2/1 16/2/1 19/2/1
f 21/2/1 18/2/1 17/2/1
f 22/2/1 18/2/1 21/2/1
f 23/2/1 21/2/1 20/2/1
f 24/2/1 21/2/1 23/2/1
f 25/3/1 24/3/1 23/3/1
f 26/3/1 24/3/1 25/3/1
f 27/1/1 26/1/1 25/1/1
f 28/1/1 26/1/1 27/1/1
f 33/3/1 30/3/1 29/3/1
f 34/3/1 30/3/1 33/3/1
f 35/3/1 32/3/1 31/3/1
f 36/3/1 32/3/1 35/3/1
f 37/2/1 34/2/1 33/2/1
f 38/2/1 34/2/1 37/2/1
f 39/2/1 36/2/1 35/2/1
f 40/2/1 36/2/1 39/2/1
f 41/3/1 38/3/1 37/3/1
f 42/3/1 38/3/1 41/3/1
f 43/3/1 40/3/1 39/3/1
f 44/3/1 40/3/1 43/3/1
f 49/1/1 46/1/1 45/1/1
f 50/1/1 46/1/1 49/1/1
f 51/1/1 48/1/1 47/1/1
f 52/1/1 48/1/1 51/1/1
f 53/3/2 54/3/2 56/3/2
f 56/3/2 54/3/2 57/3/2
f 55/3/2 56/3/2 59/3/2
f 59/3/2 56/3/2 60/3/2
f 57/3/2 58/3/2 61/3/2
f 61/3/2 58/3/2 62/3/2
f 63/3/2 64/3/2 66/3/2
f 66/3/2 64/3/2 67/3/2
f 65/3/2 66/3/2 69/3/2
f 69/3/2 66/3/2 70/3/2
f 67/3/2 68/3/2 71/3/2
f 71/3/2 68/3/2 72/3/2
f 69/2/2 70/2/2 73/2/2
f 73/2/2 70/2/2 74/2/2
f 71/2/2 72/2/2 75/2/2
f 75/2/2 72/2/2 76/2/2
f 77/1/2 78/1/2 81/1/2
f 81/1/2 78/1/2 82/1/2
f 79/1/2 80/1/2 83/1/2
f 83/1/2 80/1/2 84/1/2
f 85/3/2 86/3/2 88/3/2
f 88/3/2 86/3/2 89/3/2
f 87/2/2 88/2/2 91/2/2
f 91/2/2 88/2/2 92/2/2
f 89/2/2 90/2/2 93/2/2
f 93/2/2 90/2/2 94/2/2
f 91/3/2 92/3/2 95/3/2
f 95/3/2 92/3/2 96/3/2
f 93/3/2 94/3/2 97/3/2
f 97/3/2 94/3/2 98/3/2
f 99/3/2 100/3/2 101/3/2
f 101/3/2 100/3/2 102/3/2
f 101/1/2 102/1/2 103/1/2
f 103/1/2 102/1/2 104/1/2
f 108/3/3 106/3/3 105/3/3
f 109/3/3 106/3/3 108/3/3
f 110/2/3 107/2/3 106/2/3
f 110/3/3 106/3/3 109/3/3
f 111/2/3 107/2/3 110/2/3
f 115/2/3 109/2/3 108/2/3
f 115/3/3 110/3/3 109/3/3
f 115/3/3 111/3/3 110/3/3
f 115/3/3 112/3/3 111/3/3
f 116/3/3 112/3/3 115/3/3
f 117/2/3 113/2/3 112/2/3
f 117/3/3 112/3/3 116/3/3
f 118/3/3 114/3/3 113/3/3
f 118/2/3 113/2/3 117/2/3
f 119/3/3 114/3/3 118/3/3
f 121/3/3 108/3/3 105/3/3
f 122/2/3 116/2/3 115/2/3
f 122/3/3 108/3/3 121/3/3
f 122/2/3 115/2/3 108/2/3
f 123/2/3 116/2/3 122/2/3
f 124/3/3 117/3/3 116/3/3
f 124/2/3 116/2/3 123/2/3
f 124/3/3 119/3/3 118/3/3
f 124/3/3 118/3/3 117/3/3
f 125/3/3 119/3/3 124/3/3
f 126/3/3 123/3/3 122/3/3
f 127/2/3 125/2/3 124/2/3
f 127/3/3 123/3/3 126/3/3
f 127/2/3 124/2/3 123/2/3
f 128/2/3 125/2/3 127/2/3
f 129/3/3 119/3/3 125/3/3
f 129/1/3 120/1/3 119/1/3
f 130/1/3 120/1/3 129/1/3
f 131/2/3 125/2/3 128/2/3
f 132/3/3 129/3/3 125/3/3
f 132/2/3 125/2/3 131/2/3
f 133/3/3 129/3/3 132/3/3
f 138/3/3 135/3/3 134/3/3
f 139/2/3 136/2/3 135/2/3
f 139/3/3 135/3/3 138/3/3
f 140/2/3 136/2/3 139/2/3
f 141/2/3 136/2/3 140/2/3
f 145/2/3 142/2/3 141/2/3
f 146/2/3 142/2/3 145/2/3
f 147/3/3 143/3/3 142/3/3
f 147/2/3 142/2/3 146/2/3
f 148/1/3 144/1/3 143/1/3
f 148/3/3 143/3/3 147/3/3
f 149/1/3 144/1/3 148/1/3
f 150/1/3 144/1/3 149/1/3
f 151/3/3 138/3/3 137/3/3
f 152/3/3 138/3/3 151/3/3
f 154/3/3 153/3/3 152/3/3
f 155/3/3 153/3/3 154/3/3
f 160/3/3 156/3/3 155/3/3
f 160/3/3 157/3/3 156/3/3
f 161/3/3 157/3/3 160/3/3
f 163/1/3 159/1/3 158/1/3
f 164/3/3 162/3/3 161/3/3
f 164/3/3 163/3/3 162/3/3
f 165/1/3 159/1/3 163/1/3
f 165/3/3 163/3/3 164/3/3
f 166/1/3 159/1/3 165/1/3
f 167/3/4 168/3/4 171/3/4
f 168/2/4 169/2/4 172/2/4
f 171/3/4 168/3/4 172/3/4
f 172/2/4 169/2/4 173/2/4
f 173/2/4 169/2/4 174/2/4
f 174/2/4 175/2/4 178/2/4
f 178/2/4 175/2/4 179/2/4
f 175/3/4 176/3/4 180/3/4
f 179/2/4 175/2/4 180/2/4
f 176/1/4 177/1/4 181/1/4
f 180/3/4 176/3/4 181/3/4
f 181/1/4 177/1/4 182/1/4
f 182/1/4 177/1/4 183/1/4
f 170/3/4 171/3/4 184/3/4
f 184/3/4 171/3/4 185/3/4
f 185/3/4 186/3/4 187/3/4
f 187/3/4 186/3/4 188/3/4
f 188/3/4 189/3/4 193/3/4
f 189/3/4 190/3/4 193/3/4
f 193/3/4 190/3/4 194/3/4
f 191/1/4 192/1/4 196/1/4
f 194/3/4 195/3/4 197/3/4
f 195/3/4 196/3/4 197/3/4
f 196/1/4 192/1/4 198/1/4
f 197/3/4 196/3/4 198/3/4
f 198/1/4 192/1/4 199/1/4
f 200/3/4 201/3/4 203/3/4
f 203/3/4 201/3/4 204/3/4
f 201/2/4 202/2/4 205/2/4
f 204/3/4 201/3/4 205/3/4
f 205/2/4 202/2/4 206/2/4
f 203/2/4 204/2/4 210/2/4
f 204/3/4 205/3/4 210/3/4
f 205/3/4 206/3/4 210/3/4
f 206/3/4 207/3/4 210/3/4
f 210/3/4 207/3/4 211/3/4
f 207/2/4 208/2/4 212/2/4
f 211/3/4 207/3/4 212/3/4
f 208/3/4 209/3/4 213/3/4
f 212/2/4 208/2/4 213/2/4
f 213/3/4 209/3/4 214/3/4
f 200/3/4 203/3/4 216/3/4
f 210/2/4 211/2/4 217/2/4
f 216/3/4 203/3/4 217/3/4
f 203/2/4 210/2/4 217/2/4
f 217/2/4 211/2/4 218/2/4
f 211/3/4 212/3/4 219/3/4
f 218/2/4 211/2/4 219/2/4
f 213/3/4 214/3/4 219/3/4
f 212/3/4 213/3/4 219/3/4
f 219/3/4 214/3/4 220/3/4
f 217/3/4 218/3/4 221/3/4
f 219/2/4 220/2/4 222/2/4
f 221/3/4 218/3/4 222/3/4
f 218/2/4 219/2/4 222/2/4
f 222/2/4 220/2/4 223/2/4
f 220/3/4 214/3/4 224/3/4
f 214/1/4 215/1/4 224/1/4
f 224/1/4 215/1/4 225/1/4
f 223/2/4 220/2/4 226/2/4
f 220/3/4 224/3/4 227/3/4
f 226/2/4 220/2/4 227/2/4
f 227/3/4 224/3/4 228/3/4
f 231/3/5 230/3/5 229/3/5
f 232/3/5 230/3/5 231/3/5
f 236/3/5 234/3/5 233/3/5
f 237/3/5 234/3/5 236/3/5
f 239/3/5 236/3/5 235/3/5
f 240/3/5 236/3/5 239/3/5
f 241/3/5 238/3/5 237/3/5
f 242/3/5 238/3/5 241/3/5
f 243/3/5 241/3/5 240/3/5
f 244/3/5 241/3/5 243/3/5
f 247/3/5 246/3/5 245/3/5
f 248/3/5 246/3/5 247/3/5
f 251/3/5 249/3/5 248/3/5
f 252/3/5 249/3/5 251/3/5
f 253/3/5 251/3/5 250/3/5
f 254/3/5 251/3/5 253/3/5
f 257/2/5 256/2/5 255/2/5
f 258/2/5 256/2/5 257/2/5
f 261/3/5 259/3/5 258/3/5
f 262/3/5 259/3/5 261/3/5
f 263/2/5 261/2/5 260/2/5
f 264/2/5 261/2/5 263/2/5
f 265/2/6 266/2/6 268/2/6
f 268/2/6 266/2/6 269/2/6
f 267/2/6 268/2/6 270/2/6
f 270/2/6 268/2/6 271/2/6
f 271/2/6 272/2/6 273/2/6
f 273/2/6 272/2/6 274/2/6
f 275/3/6 276/3/6 279/3/6
f 279/3/6 276/3/6 280/3/6
f 277/3/6 278/3/6 281/3/6
f 281/3/6 278/3/6 282/3/6
f 283/3/6 284/3/6 287/3/6
f 287/3/6 284/3/6 288/3/6
f 285/3/6 286/3/6 289/3/6
f 289/3/6 286/3/6 290/3/6
f 291/1/6 292/1/6 294/1/6
f 294/1/6 292/1/6 295/1/6
f 293/1/6 294/1/6 297/1/6
f 295/1/6 296/1/6 297/1/6
f 294/1/6 295/1/6 297/1/6
f 297/1/6 296/1/6 298/1/6
f 298/1/6 296/1/6 299/1/6
f 299/1/6 296/1/6 300/1/6
f 298/1/6 299/1/6 301/1/6
f 301/1/6 299/1/6 302/1/6
