# MagicaVoxel @ Ephtracy

# group
o 

# material
mtllib Glock-4.mtl
usemtl palette

# normals
vn -1 0 0
vn 1 0 0
vn 0 0 1
vn 0 0 -1
vn 0 -1 0
vn 0 1 0

# texcoords
vt 0.728516 0.5
vt 0.736328 0.5
vt 0.763672 0.5
vt 0.771484 0.5
vt 0.779297 0.5

# verts
v -1.4 2.6 0.1
v -1.4 2.6 -0.1
v -1.4 2.7 0.1
v -1.4 2.7 -0.1
v -1.3 2.4 0.1
v -1.3 2.4 -0.1
v -1.3 2.5 0.2
v -1.3 2.5 0.1
v -1.3 2.5 -0.1
v -1.3 2.5 -0.2
v -1.3 2.6 0.2
v -1.3 2.6 0.1
v -1.3 2.6 -0.1
v -1.3 2.6 -0.2
v -1.3 2.7 0.1
v -1.3 2.7 -0.1
v -1.3 2.9 0.2
v -1.3 2.9 0.1
v -1.3 2.9 -0.1
v -1.3 2.9 -0.2
v -1.3 3 0.1
v -1.3 3 -0.1
v -1.2 2.4 0.2
v -1.2 2.4 0.1
v -1.2 2.4 -0.1
v -1.2 2.4 -0.2
v -1.2 2.5 0.2
v -1.2 2.5 0.1
v -1.2 2.5 -0.1
v -1.2 2.5 -0.2
v -1.2 2.9 0.2
v -1.2 2.9 0.1
v -1.2 2.9 -0.1
v -1.2 2.9 -0.2
v -1.2 3 0.2
v -1.2 3 0.1
v -1.2 3 -0.1
v -1.2 3 -0.2
v 0.9 2.4 0.2
v 0.9 2.4 0.1
v 0.9 2.4 -0.1
v 0.9 2.4 -0.2
v 0.9 2.5 0.2
v 0.9 2.5 0.1
v 0.9 2.5 -0.1
v 0.9 2.5 -0.2
v 1.2 2.4 0.1
v 1.2 2.4 -0.1
v 1.2 2.5 0.2
v 1.2 2.5 0.1
v 1.2 2.5 -0.1
v 1.2 2.5 -0.2
v 1.2 2.6 0.2
v 1.2 2.6 0.1
v 1.2 2.6 -0.1
v 1.2 2.6 -0.2
v 1.4 2.5 0.1
v 1.4 2.5 -0.1
v 1.4 2.6 0.2
v 1.4 2.6 0.1
v 1.4 2.6 -0.1
v 1.4 2.6 -0.2
v 1.4 2.7 0.2
v 1.4 2.7 0.1
v 1.4 2.7 -0.1
v 1.4 2.7 -0.2
v 1.4 2.9 0.2
v 1.4 2.9 0.1
v 1.4 2.9 -0.1
v 1.4 2.9 -0.2
v 1.4 3 0.2
v 1.4 3 0.1
v 1.4 3 -0.1
v 1.4 3 -0.2
v 1.5 2.6 0.1
v 1.5 2.6 -0.1
v 1.5 2.7 0.2
v 1.5 2.7 0.1
v 1.5 2.7 -0.1
v 1.5 2.7 -0.2
v 1.5 2.9 0.2
v 1.5 2.9 0.1
v 1.5 2.9 -0.1
v 1.5 2.9 -0.2
v 1.5 3 0.1
v 1.5 3 -0.1
v -1.3 2.5 0.2
v -1.3 2.6 0.2
v -1.3 2.9 0.2
v -1.2 2.4 0.2
v -1.2 2.5 0.2
v -1.2 2.9 0.2
v -1.2 3 0.2
v -1.1 2.6 0.2
v -1.1 2.9 0.2
v -1 2.6 0.2
v -1 2.9 0.2
v -0.9 2.4 0.2
v -0.9 2.5 0.2
v -0.9 2.6 0.2
v -0.9 2.9 0.2
v -0.8 2.6 0.2
v -0.8 2.9 0.2
v -0.7 2.6 0.2
v -0.7 2.9 0.2
v -0.6 2.6 0.2
v -0.6 2.9 0.2
v -0.4 2.4 0.2
v -0.4 2.5 0.2
v -0.2 2.9 0.2
v -0.2 3 0.2
v 0.2 2.5 0.2
v 0.2 2.6 0.2
v 0.3 2.9 0.2
v 0.3 3 0.2
v 0.6 2.7 0.2
v 0.6 2.8 0.2
v 0.8 2.5 0.2
v 0.8 2.6 0.2
v 0.9 2.4 0.2
v 0.9 2.5 0.2
v 1.2 2.5 0.2
v 1.2 2.6 0.2
v 1.2 2.7 0.2
v 1.2 2.8 0.2
v 1.4 2.6 0.2
v 1.4 2.7 0.2
v 1.4 2.9 0.2
v 1.4 3 0.2
v 1.5 2.7 0.2
v 1.5 2.9 0.2
v -1.4 2.6 0.1
v -1.4 2.7 0.1
v -1.3 2.4 0.1
v -1.3 2.5 0.1
v -1.3 2.6 0.1
v -1.3 2.7 0.1
v -1.3 2.9 0.1
v -1.3 3 0.1
v -1.2 2.4 0.1
v -1.2 2.5 0.1
v -1.2 2.9 0.1
v -1.2 3 0.1
v 0.9 2.4 0.1
v 0.9 2.5 0.1
v 1.2 2.4 0.1
v 1.2 2.5 0.1
v 1.2 2.6 0.1
v 1.4 2.5 0.1
v 1.4 2.6 0.1
v 1.4 2.7 0.1
v 1.4 2.9 0.1
v 1.4 3 0.1
v 1.5 2.6 0.1
v 1.5 2.7 0.1
v 1.5 2.9 0.1
v 1.5 3 0.1
v -1.4 2.6 -0.1
v -1.4 2.7 -0.1
v -1.3 2.4 -0.1
v -1.3 2.5 -0.1
v -1.3 2.6 -0.1
v -1.3 2.7 -0.1
v -1.3 2.9 -0.1
v -1.3 3 -0.1
v -1.2 2.4 -0.1
v -1.2 2.5 -0.1
v -1.2 2.9 -0.1
v -1.2 3 -0.1
v 0.9 2.4 -0.1
v 0.9 2.5 -0.1
v 1.2 2.4 -0.1
v 1.2 2.5 -0.1
v 1.2 2.6 -0.1
v 1.4 2.5 -0.1
v 1.4 2.6 -0.1
v 1.4 2.7 -0.1
v 1.4 2.9 -0.1
v 1.4 3 -0.1
v 1.5 2.6 -0.1
v 1.5 2.7 -0.1
v 1.5 2.9 -0.1
v 1.5 3 -0.1
v -1.3 2.5 -0.2
v -1.3 2.6 -0.2
v -1.3 2.9 -0.2
v -1.2 2.4 -0.2
v -1.2 2.5 -0.2
v -1.2 2.9 -0.2
v -1.2 3 -0.2
v -1.1 2.6 -0.2
v -1.1 2.9 -0.2
v -1 2.6 -0.2
v -1 2.9 -0.2
v -0.9 2.4 -0.2
v -0.9 2.5 -0.2
v -0.9 2.6 -0.2
v -0.9 2.9 -0.2
v -0.8 2.6 -0.2
v -0.8 2.9 -0.2
v -0.7 2.6 -0.2
v -0.7 2.9 -0.2
v -0.6 2.6 -0.2
v -0.6 2.9 -0.2
v -0.4 2.4 -0.2
v -0.4 2.5 -0.2
v -0.2 2.9 -0.2
v -0.2 3 -0.2
v 0.2 2.5 -0.2
v 0.2 2.6 -0.2
v 0.3 2.9 -0.2
v 0.3 3 -0.2
v 0.6 2.7 -0.2
v 0.6 2.8 -0.2
v 0.8 2.5 -0.2
v 0.8 2.6 -0.2
v 0.9 2.4 -0.2
v 0.9 2.5 -0.2
v 1.2 2.5 -0.2
v 1.2 2.6 -0.2
v 1.2 2.7 -0.2
v 1.2 2.8 -0.2
v 1.4 2.6 -0.2
v 1.4 2.7 -0.2
v 1.4 2.9 -0.2
v 1.4 3 -0.2
v 1.5 2.7 -0.2
v 1.5 2.9 -0.2
v -1.2 2.4 0.2
v -0.9 2.4 0.2
v -0.4 2.4 0.2
v 0.9 2.4 0.2
v -1.3 2.4 0.1
v -1.2 2.4 0.1
v -0.9 2.4 0.1
v -0.4 2.4 0.1
v 0.9 2.4 0.1
v 1.2 2.4 0.1
v -1.3 2.4 -0.1
v -1.2 2.4 -0.1
v -0.9 2.4 -0.1
v -0.4 2.4 -0.1
v 0.9 2.4 -0.1
v 1.2 2.4 -0.1
v -1.2 2.4 -0.2
v -0.9 2.4 -0.2
v -0.4 2.4 -0.2
v 0.9 2.4 -0.2
v -1.3 2.5 0.2
v -1.2 2.5 0.2
v 0.9 2.5 0.2
v 1.2 2.5 0.2
v -1.3 2.5 0.1
v -1.2 2.5 0.1
v 0.9 2.5 0.1
v 1.2 2.5 0.1
v 1.4 2.5 0.1
v -1.3 2.5 -0.1
v -1.2 2.5 -0.1
v 0.9 2.5 -0.1
v 1.2 2.5 -0.1
v 1.4 2.5 -0.1
v -1.3 2.5 -0.2
v -1.2 2.5 -0.2
v 0.9 2.5 -0.2
v 1.2 2.5 -0.2
v 1.2 2.6 0.2
v 1.4 2.6 0.2
v -1.4 2.6 0.1
v -1.3 2.6 0.1
v 1.2 2.6 0.1
v 1.4 2.6 0.1
v 1.5 2.6 0.1
v -1.4 2.6 -0.1
v -1.3 2.6 -0.1
v 1.2 2.6 -0.1
v 1.4 2.6 -0.1
v 1.5 2.6 -0.1
v 1.2 2.6 -0.2
v 1.4 2.6 -0.2
v 1.4 2.7 0.2
v 1.5 2.7 0.2
v 1.4 2.7 0.1
v 1.5 2.7 0.1
v 1.4 2.7 -0.1
v 1.5 2.7 -0.1
v 1.4 2.7 -0.2
v 1.5 2.7 -0.2
v -1.4 2.7 0.1
v -1.3 2.7 0.1
v -1.4 2.7 -0.1
v -1.3 2.7 -0.1
v -1.3 2.9 0.2
v -1.2 2.9 0.2
v 1.4 2.9 0.2
v 1.5 2.9 0.2
v -1.3 2.9 0.1
v -1.2 2.9 0.1
v 1.4 2.9 0.1
v 1.5 2.9 0.1
v -1.3 2.9 -0.1
v -1.2 2.9 -0.1
v 1.4 2.9 -0.1
v 1.5 2.9 -0.1
v -1.3 2.9 -0.2
v -1.2 2.9 -0.2
v 1.4 2.9 -0.2
v 1.5 2.9 -0.2
v -1.2 3 0.2
v -0.2 3 0.2
v 0.3 3 0.2
v 1.4 3 0.2
v -1.3 3 0.1
v -1.2 3 0.1
v -0.2 3 0.1
v 0.3 3 0.1
v 1.4 3 0.1
v 1.5 3 0.1
v -1.3 3 -0.1
v -1.2 3 -0.1
v -0.2 3 -0.1
v 0.3 3 -0.1
v 1.4 3 -0.1
v 1.5 3 -0.1
v -1.2 3 -0.2
v -0.2 3 -0.2
v 0.3 3 -0.2
v 1.4 3 -0.2

# faces
f 3/3/1 2/3/1 1/3/1
f 4/3/1 2/3/1 3/3/1
f 8/1/1 6/1/1 5/1/1
f 9/1/1 6/1/1 8/1/1
f 11/1/1 8/1/1 7/1/1
f 11/1/1 10/1/1 9/1/1
f 11/1/1 9/1/1 8/1/1
f 12/1/1 10/1/1 11/1/1
f 13/1/1 10/1/1 12/1/1
f 14/1/1 10/1/1 13/1/1
f 15/3/1 12/3/1 11/3/1
f 16/3/1 14/3/1 13/3/1
f 17/3/1 15/3/1 11/3/1
f 17/3/1 16/3/1 15/3/1
f 18/3/1 16/3/1 17/3/1
f 19/3/1 14/3/1 16/3/1
f 19/3/1 16/3/1 18/3/1
f 20/3/1 14/3/1 19/3/1
f 21/3/1 19/3/1 18/3/1
f 22/3/1 19/3/1 21/3/1
f 27/1/1 24/1/1 23/1/1
f 28/1/1 24/1/1 27/1/1
f 29/1/1 26/1/1 25/1/1
f 30/1/1 26/1/1 29/1/1
f 35/3/1 32/3/1 31/3/1
f 36/3/1 32/3/1 35/3/1
f 37/3/1 34/3/1 33/3/1
f 38/3/1 34/3/1 37/3/1
f 39/1/2 40/1/2 43/1/2
f 43/1/2 40/1/2 44/1/2
f 41/1/2 42/1/2 45/1/2
f 45/1/2 42/1/2 46/1/2
f 47/1/2 48/1/2 50/1/2
f 50/1/2 48/1/2 51/1/2
f 49/1/2 50/1/2 53/1/2
f 53/1/2 50/1/2 54/1/2
f 51/1/2 52/1/2 55/1/2
f 55/1/2 52/1/2 56/1/2
f 57/1/2 58/1/2 60/1/2
f 60/1/2 58/1/2 61/1/2
f 59/3/2 60/3/2 63/3/2
f 63/3/2 60/3/2 64/3/2
f 61/3/2 62/3/2 65/3/2
f 65/3/2 62/3/2 66/3/2
f 67/3/2 68/3/2 71/3/2
f 71/3/2 68/3/2 72/3/2
f 69/3/2 70/3/2 73/3/2
f 73/3/2 70/3/2 74/3/2
f 75/3/2 76/3/2 78/3/2
f 78/3/2 76/3/2 79/3/2
f 77/3/2 78/3/2 81/3/2
f 78/5/2 79/5/2 82/5/2
f 81/3/2 78/3/2 82/3/2
f 79/3/2 80/3/2 83/3/2
f 82/5/2 79/5/2 83/5/2
f 83/3/2 80/3/2 84/3/2
f 82/3/2 83/3/2 85/3/2
f 85/3/2 83/3/2 86/3/2
f 91/1/3 88/1/3 87/1/3
f 92/3/3 89/3/3 88/3/3
f 94/1/3 91/1/3 90/1/3
f 94/3/3 93/3/3 92/3/3
f 94/3/3 92/3/3 88/3/3
f 94/1/3 88/1/3 91/1/3
f 95/3/3 93/3/3 94/3/3
f 96/1/3 94/1/3 90/1/3
f 96/4/3 95/4/3 94/4/3
f 97/3/3 93/3/3 95/3/3
f 97/4/3 95/4/3 96/4/3
f 98/1/3 96/1/3 90/1/3
f 99/1/3 96/1/3 98/1/3
f 100/3/3 97/3/3 96/3/3
f 100/1/3 96/1/3 99/1/3
f 101/3/3 93/3/3 97/3/3
f 101/3/3 97/3/3 100/3/3
f 102/1/3 100/1/3 99/1/3
f 102/4/3 101/4/3 100/4/3
f 103/3/3 93/3/3 101/3/3
f 103/4/3 101/4/3 102/4/3
f 104/1/3 102/1/3 99/1/3
f 104/3/3 103/3/3 102/3/3
f 105/3/3 93/3/3 103/3/3
f 105/3/3 103/3/3 104/3/3
f 106/1/3 104/1/3 99/1/3
f 106/4/3 105/4/3 104/4/3
f 107/3/3 93/3/3 105/3/3
f 107/4/3 105/4/3 106/4/3
f 108/4/3 99/4/3 98/4/3
f 109/1/3 106/1/3 99/1/3
f 109/4/3 99/4/3 108/4/3
f 110/3/3 93/3/3 107/3/3
f 110/3/3 107/3/3 106/3/3
f 111/3/3 93/3/3 110/3/3
f 112/1/3 106/1/3 109/1/3
f 112/1/3 109/1/3 108/1/3
f 113/3/3 110/3/3 106/3/3
f 113/1/3 106/1/3 112/1/3
f 114/4/3 111/4/3 110/4/3
f 114/3/3 110/3/3 113/3/3
f 115/4/3 111/4/3 114/4/3
f 116/3/3 114/3/3 113/3/3
f 116/3/3 115/3/3 114/3/3
f 117/3/3 115/3/3 116/3/3
f 118/2/3 113/2/3 112/2/3
f 118/1/3 112/1/3 108/1/3
f 119/3/3 116/3/3 113/3/3
f 119/2/3 113/2/3 118/2/3
f 120/1/3 118/1/3 108/1/3
f 120/1/3 119/1/3 118/1/3
f 121/1/3 119/1/3 120/1/3
f 122/1/3 119/1/3 121/1/3
f 123/3/3 116/3/3 119/3/3
f 123/1/3 119/1/3 122/1/3
f 124/4/3 117/4/3 116/4/3
f 124/3/3 116/3/3 123/3/3
f 125/3/3 115/3/3 117/3/3
f 125/4/3 117/4/3 124/4/3
f 126/3/3 124/3/3 123/3/3
f 126/3/3 125/3/3 124/3/3
f 127/3/3 125/3/3 126/3/3
f 128/3/3 115/3/3 125/3/3
f 128/3/3 125/3/3 127/3/3
f 129/3/3 115/3/3 128/3/3
f 130/3/3 128/3/3 127/3/3
f 131/3/3 128/3/3 130/3/3
f 136/3/3 133/3/3 132/3/3
f 137/3/3 133/3/3 136/3/3
f 140/1/3 135/1/3 134/1/3
f 141/1/3 135/1/3 140/1/3
f 142/3/3 139/3/3 138/3/3
f 143/3/3 139/3/3 142/3/3
f 146/1/3 145/1/3 144/1/3
f 147/1/3 145/1/3 146/1/3
f 149/1/3 148/1/3 147/1/3
f 150/1/3 148/1/3 149/1/3
f 154/3/3 151/3/3 150/3/3
f 155/3/3 151/3/3 154/3/3
f 156/3/3 153/3/3 152/3/3
f 157/3/3 153/3/3 156/3/3
f 158/3/4 159/3/4 162/3/4
f 162/3/4 159/3/4 163/3/4
f 160/1/4 161/1/4 166/1/4
f 166/1/4 161/1/4 167/1/4
f 164/3/4 165/3/4 168/3/4
f 168/3/4 165/3/4 169/3/4
f 170/1/4 171/1/4 172/1/4
f 172/1/4 171/1/4 173/1/4
f 173/1/4 174/1/4 175/1/4
f 175/1/4 174/1/4 176/1/4
f 176/3/4 177/3/4 180/3/4
f 180/3/4 177/3/4 181/3/4
f 178/3/4 179/3/4 182/3/4
f 182/3/4 179/3/4 183/3/4
f 184/1/4 185/1/4 188/1/4
f 185/3/4 186/3/4 189/3/4
f 187/1/4 188/1/4 191/1/4
f 189/3/4 190/3/4 191/3/4
f 185/3/4 189/3/4 191/3/4
f 188/1/4 185/1/4 191/1/4
f 191/3/4 190/3/4 192/3/4
f 187/1/4 191/1/4 193/1/4
f 191/4/4 192/4/4 193/4/4
f 192/3/4 190/3/4 194/3/4
f 193/4/4 192/4/4 194/4/4
f 187/1/4 193/1/4 195/1/4
f 195/1/4 193/1/4 196/1/4
f 193/3/4 194/3/4 197/3/4
f 196/1/4 193/1/4 197/1/4
f 194/3/4 190/3/4 198/3/4
f 197/3/4 194/3/4 198/3/4
f 196/1/4 197/1/4 199/1/4
f 197/4/4 198/4/4 199/4/4
f 198/3/4 190/3/4 200/3/4
f 199/4/4 198/4/4 200/4/4
f 196/1/4 199/1/4 201/1/4
f 199/3/4 200/3/4 201/3/4
f 200/3/4 190/3/4 202/3/4
f 201/3/4 200/3/4 202/3/4
f 196/1/4 201/1/4 203/1/4
f 201/4/4 202/4/4 203/4/4
f 202/3/4 190/3/4 204/3/4
f 203/4/4 202/4/4 204/4/4
f 195/4/4 196/4/4 205/4/4
f 196/1/4 203/1/4 206/1/4
f 205/4/4 196/4/4 206/4/4
f 204/3/4 190/3/4 207/3/4
f 203/3/4 204/3/4 207/3/4
f 207/3/4 190/3/4 208/3/4
f 206/1/4 203/1/4 209/1/4
f 205/1/4 206/1/4 209/1/4
f 203/3/4 207/3/4 210/3/4
f 209/1/4 203/1/4 210/1/4
f 207/4/4 208/4/4 211/4/4
f 210/3/4 207/3/4 211/3/4
f 211/4/4 208/4/4 212/4/4
f 210/3/4 211/3/4 213/3/4
f 211/3/4 212/3/4 213/3/4
f 213/3/4 212/3/4 214/3/4
f 209/2/4 210/2/4 215/2/4
f 205/1/4 209/1/4 215/1/4
f 210/3/4 213/3/4 216/3/4
f 215/2/4 210/2/4 216/2/4
f 205/1/4 215/1/4 217/1/4
f 215/1/4 216/1/4 217/1/4
f 217/1/4 216/1/4 218/1/4
f 218/1/4 216/1/4 219/1/4
f 216/3/4 213/3/4 220/3/4
f 219/1/4 216/1/4 220/1/4
f 213/4/4 214/4/4 221/4/4
f 220/3/4 213/3/4 221/3/4
f 214/3/4 212/3/4 222/3/4
f 221/4/4 214/4/4 222/4/4
f 220/3/4 221/3/4 223/3/4
f 221/3/4 222/3/4 223/3/4
f 223/3/4 222/3/4 224/3/4
f 222/3/4 212/3/4 225/3/4
f 224/3/4 222/3/4 225/3/4
f 225/3/4 212/3/4 226/3/4
f 224/3/4 225/3/4 227/3/4
f 227/3/4 225/3/4 228/3/4
f 234/1/5 230/1/5 229/1/5
f 235/4/5 231/4/5 230/4/5
f 235/1/5 230/1/5 234/1/5
f 236/1/5 232/1/5 231/1/5
f 236/4/5 231/4/5 235/4/5
f 237/1/5 232/1/5 236/1/5
f 239/1/5 235/1/5 234/1/5
f 239/1/5 238/1/5 237/1/5
f 239/1/5 237/1/5 236/1/5
f 239/1/5 236/1/5 235/1/5
f 239/1/5 234/1/5 233/1/5
f 240/1/5 238/1/5 239/1/5
f 241/1/5 238/1/5 240/1/5
f 242/1/5 238/1/5 241/1/5
f 243/1/5 238/1/5 242/1/5
f 244/1/5 238/1/5 243/1/5
f 245/1/5 241/1/5 240/1/5
f 246/4/5 242/4/5 241/4/5
f 246/1/5 241/1/5 245/1/5
f 247/1/5 243/1/5 242/1/5
f 247/4/5 242/4/5 246/4/5
f 248/1/5 243/1/5 247/1/5
f 253/1/5 250/1/5 249/1/5
f 254/1/5 250/1/5 253/1/5
f 255/1/5 252/1/5 251/1/5
f 256/1/5 252/1/5 255/1/5
f 261/1/5 257/1/5 256/1/5
f 262/1/5 257/1/5 261/1/5
f 263/1/5 259/1/5 258/1/5
f 264/1/5 259/1/5 263/1/5
f 265/1/5 261/1/5 260/1/5
f 266/1/5 261/1/5 265/1/5
f 271/3/5 268/3/5 267/3/5
f 272/3/5 268/3/5 271/3/5
f 274/3/5 270/3/5 269/3/5
f 275/3/5 270/3/5 274/3/5
f 277/3/5 273/3/5 272/3/5
f 278/3/5 273/3/5 277/3/5
f 279/3/5 277/3/5 276/3/5
f 280/3/5 277/3/5 279/3/5
f 283/3/5 282/3/5 281/3/5
f 284/3/5 282/3/5 283/3/5
f 287/3/5 286/3/5 285/3/5
f 288/3/5 286/3/5 287/3/5
f 289/3/6 290/3/6 291/3/6
f 291/3/6 290/3/6 292/3/6
f 293/3/6 294/3/6 297/3/6
f 297/3/6 294/3/6 298/3/6
f 295/3/6 296/3/6 299/3/6
f 299/3/6 296/3/6 300/3/6
f 301/3/6 302/3/6 305/3/6
f 305/3/6 302/3/6 306/3/6
f 303/3/6 304/3/6 307/3/6
f 307/3/6 304/3/6 308/3/6
f 309/3/6 310/3/6 314/3/6
f 310/4/6 311/4/6 315/4/6
f 314/3/6 310/3/6 315/3/6
f 311/3/6 312/3/6 316/3/6
f 315/4/6 311/4/6 316/4/6
f 316/3/6 312/3/6 317/3/6
f 314/3/6 315/3/6 319/3/6
f 317/3/6 318/3/6 319/3/6
f 316/3/6 317/3/6 319/3/6
f 315/3/6 316/3/6 319/3/6
f 313/3/6 314/3/6 319/3/6
f 319/3/6 318/3/6 320/3/6
f 320/3/6 318/3/6 321/3/6
f 321/3/6 318/3/6 322/3/6
f 322/3/6 318/3/6 323/3/6
f 323/3/6 318/3/6 324/3/6
f 320/3/6 321/3/6 325/3/6
f 321/4/6 322/4/6 326/4/6
f 325/3/6 321/3/6 326/3/6
f 322/3/6 323/3/6 327/3/6
f 326/4/6 322/4/6 327/4/6
f 327/3/6 323/3/6 328/3/6
