# MagicaVoxel @ Ephtracy

# group
o 

# material
mtllib Door.mtl
usemtl palette

# normals
vn -1 0 0
vn 1 0 0
vn 0 0 1
vn 0 0 -1
vn 0 -1 0
vn 0 1 0

# texcoords
vt 0.626953 0.5
vt 0.689453 0.5
vt 0.751953 0.5
vt 0.814453 0.5
vt 0.830078 0.5
vt 0.837891 0.5
vt 0.841797 0.5
vt 0.876953 0.5

# verts
v -0.8 -1.6 0.1
v -0.8 -1.6 0
v -0.8 1.6 0.1
v -0.8 1.6 0
v 0.8 -1.6 0.1
v 0.8 -1.6 0
v 0.8 1.6 0.1
v 0.8 1.6 0
v -0.8 -1.6 0.1
v -0.8 1.6 0.1
v -0.7 0.4 0.1
v -0.7 0.8 0.1
v -0.6 -0.5 0.1
v -0.6 -0.2 0.1
v -0.6 0.3 0.1
v -0.6 0.4 0.1
v -0.6 0.8 0.1
v -0.6 0.9 0.1
v -0.5 -0.4 0.1
v -0.5 -0.3 0.1
v -0.5 0.2 0.1
v -0.5 0.3 0.1
v -0.5 0.4 0.1
v -0.5 0.8 0.1
v -0.5 0.9 0.1
v -0.5 1 0.1
v -0.4 -0.6 0.1
v -0.4 -0.5 0.1
v -0.4 -0.4 0.1
v -0.4 -0.3 0.1
v -0.4 -0.2 0.1
v -0.4 -0.1 0.1
v -0.4 0.6 0.1
v -0.4 0.7 0.1
v -0.4 0.8 0.1
v -0.3 -1.1 0.1
v -0.3 -1 0.1
v -0.3 -0.8 0.1
v -0.3 -0.6 0.1
v -0.3 -0.5 0.1
v -0.3 -0.4 0.1
v -0.3 -0.3 0.1
v -0.3 -0.1 0.1
v -0.3 0.1 0.1
v -0.3 0.2 0.1
v -0.3 0.3 0.1
v -0.3 0.4 0.1
v -0.3 0.5 0.1
v -0.3 0.7 0.1
v -0.3 0.8 0.1
v -0.3 1 0.1
v -0.3 1.1 0.1
v -0.3 1.2 0.1
v -0.2 -1 0.1
v -0.2 -0.8 0.1
v -0.2 -0.7 0.1
v -0.2 -0.5 0.1
v -0.2 -0.4 0.1
v -0.2 -0.3 0.1
v -0.2 -0.1 0.1
v -0.2 0.1 0.1
v -0.2 0.2 0.1
v -0.2 0.6 0.1
v -0.2 0.8 0.1
v -0.2 0.9 0.1
v -0.2 1 0.1
v -0.2 1.1 0.1
v -0.2 1.2 0.1
v -0.1 -1.1 0.1
v -0.1 -1 0.1
v -0.1 -0.8 0.1
v -0.1 -0.3 0.1
v -0.1 0.1 0.1
v -0.1 1.1 0.1
v -0.1 1.2 0.1
v 0 0.3 0.1
v 0 0.4 0.1
v 0.1 -1.1 0.1
v 0.1 -1 0.1
v 0.1 -0.8 0.1
v 0.1 -0.3 0.1
v 0.1 0.1 0.1
v 0.1 1.1 0.1
v 0.1 1.2 0.1
v 0.2 -1 0.1
v 0.2 -0.8 0.1
v 0.2 -0.7 0.1
v 0.2 -0.5 0.1
v 0.2 -0.4 0.1
v 0.2 -0.3 0.1
v 0.2 -0.1 0.1
v 0.2 0.1 0.1
v 0.2 0.2 0.1
v 0.2 0.3 0.1
v 0.2 0.4 0.1
v 0.2 0.6 0.1
v 0.2 0.8 0.1
v 0.2 0.9 0.1
v 0.2 1 0.1
v 0.2 1.1 0.1
v 0.2 1.2 0.1
v 0.3 -1.1 0.1
v 0.3 -1 0.1
v 0.3 -0.8 0.1
v 0.3 -0.6 0.1
v 0.3 -0.5 0.1
v 0.3 -0.4 0.1
v 0.3 -0.3 0.1
v 0.3 -0.1 0.1
v 0.3 0.1 0.1
v 0.3 0.2 0.1
v 0.3 0.3 0.1
v 0.3 0.4 0.1
v 0.3 0.5 0.1
v 0.3 0.7 0.1
v 0.3 0.8 0.1
v 0.3 1 0.1
v 0.3 1.1 0.1
v 0.3 1.2 0.1
v 0.4 -0.6 0.1
v 0.4 -0.5 0.1
v 0.4 -0.4 0.1
v 0.4 -0.3 0.1
v 0.4 -0.2 0.1
v 0.4 -0.1 0.1
v 0.4 0.6 0.1
v 0.4 0.7 0.1
v 0.4 0.8 0.1
v 0.5 -0.4 0.1
v 0.5 -0.3 0.1
v 0.5 0.2 0.1
v 0.5 0.3 0.1
v 0.5 0.4 0.1
v 0.5 0.8 0.1
v 0.5 0.9 0.1
v 0.5 1 0.1
v 0.6 -0.5 0.1
v 0.6 -0.2 0.1
v 0.6 0.3 0.1
v 0.6 0.4 0.1
v 0.6 0.8 0.1
v 0.6 0.9 0.1
v 0.7 0.4 0.1
v 0.7 0.8 0.1
v 0.8 -1.6 0.1
v 0.8 1.6 0.1
v -0.8 -1.6 0
v -0.8 1.6 0
v -0.7 0.4 0
v -0.7 0.8 0
v -0.6 -0.5 0
v -0.6 -0.2 0
v -0.6 0.3 0
v -0.6 0.4 0
v -0.6 0.8 0
v -0.6 0.9 0
v -0.5 -0.4 0
v -0.5 -0.3 0
v -0.5 0.2 0
v -0.5 0.3 0
v -0.5 0.4 0
v -0.5 0.8 0
v -0.5 0.9 0
v -0.5 1 0
v -0.4 -0.6 0
v -0.4 -0.5 0
v -0.4 -0.4 0
v -0.4 -0.3 0
v -0.4 -0.2 0
v -0.4 -0.1 0
v -0.4 0.6 0
v -0.4 0.7 0
v -0.4 0.8 0
v -0.3 -1.1 0
v -0.3 -1 0
v -0.3 -0.8 0
v -0.3 -0.6 0
v -0.3 -0.5 0
v -0.3 -0.4 0
v -0.3 -0.3 0
v -0.3 -0.1 0
v -0.3 0.1 0
v -0.3 0.2 0
v -0.3 0.3 0
v -0.3 0.4 0
v -0.3 0.5 0
v -0.3 0.7 0
v -0.3 0.8 0
v -0.3 1 0
v -0.3 1.1 0
v -0.3 1.2 0
v -0.2 -1 0
v -0.2 -0.8 0
v -0.2 -0.7 0
v -0.2 -0.5 0
v -0.2 -0.4 0
v -0.2 -0.3 0
v -0.2 -0.1 0
v -0.2 0.1 0
v -0.2 0.2 0
v -0.2 0.6 0
v -0.2 0.8 0
v -0.2 0.9 0
v -0.2 1 0
v -0.2 1.1 0
v -0.2 1.2 0
v -0.1 -1.1 0
v -0.1 -1 0
v -0.1 -0.8 0
v -0.1 -0.3 0
v -0.1 0.1 0
v -0.1 1.1 0
v -0.1 1.2 0
v 0 0.3 0
v 0 0.4 0
v 0.1 -1.1 0
v 0.1 -1 0
v 0.1 -0.8 0
v 0.1 -0.3 0
v 0.1 0.1 0
v 0.1 1.1 0
v 0.1 1.2 0
v 0.2 -1 0
v 0.2 -0.8 0
v 0.2 -0.7 0
v 0.2 -0.5 0
v 0.2 -0.4 0
v 0.2 -0.3 0
v 0.2 -0.1 0
v 0.2 0.1 0
v 0.2 0.2 0
v 0.2 0.3 0
v 0.2 0.4 0
v 0.2 0.6 0
v 0.2 0.8 0
v 0.2 0.9 0
v 0.2 1 0
v 0.2 1.1 0
v 0.2 1.2 0
v 0.3 -1.1 0
v 0.3 -1 0
v 0.3 -0.8 0
v 0.3 -0.6 0
v 0.3 -0.5 0
v 0.3 -0.4 0
v 0.3 -0.3 0
v 0.3 -0.1 0
v 0.3 0.1 0
v 0.3 0.2 0
v 0.3 0.3 0
v 0.3 0.4 0
v 0.3 0.5 0
v 0.3 0.7 0
v 0.3 0.8 0
v 0.3 1 0
v 0.3 1.1 0
v 0.3 1.2 0
v 0.4 -0.6 0
v 0.4 -0.5 0
v 0.4 -0.4 0
v 0.4 -0.3 0
v 0.4 -0.2 0
v 0.4 -0.1 0
v 0.4 0.6 0
v 0.4 0.7 0
v 0.4 0.8 0
v 0.5 -0.4 0
v 0.5 -0.3 0
v 0.5 0.2 0
v 0.5 0.3 0
v 0.5 0.4 0
v 0.5 0.8 0
v 0.5 0.9 0
v 0.5 1 0
v 0.6 -0.5 0
v 0.6 -0.2 0
v 0.6 0.3 0
v 0.6 0.4 0
v 0.6 0.8 0
v 0.6 0.9 0
v 0.7 0.4 0
v 0.7 0.8 0
v 0.8 -1.6 0
v 0.8 1.6 0
v -0.8 -1.6 0.1
v 0.8 -1.6 0.1
v -0.8 -1.6 0
v 0.8 -1.6 0
v -0.8 1.6 0.1
v 0.8 1.6 0.1
v -0.8 1.6 0
v 0.8 1.6 0

# faces
f 3/8/1 2/8/1 1/8/1
f 4/8/1 2/8/1 3/8/1
f 5/8/2 6/8/2 7/8/2
f 7/8/2 6/8/2 8/8/2
f 11/8/3 10/8/3 9/8/3
f 12/8/3 10/8/3 11/8/3
f 13/8/3 11/8/3 9/8/3
f 14/8/3 11/8/3 13/8/3
f 15/8/3 11/8/3 14/8/3
f 16/5/3 12/5/3 11/5/3
f 16/8/3 11/8/3 15/8/3
f 17/8/3 10/8/3 12/8/3
f 17/5/3 12/5/3 16/5/3
f 18/8/3 10/8/3 17/8/3
f 19/6/3 14/6/3 13/6/3
f 20/6/3 14/6/3 19/6/3
f 21/8/3 15/8/3 14/8/3
f 22/5/3 16/5/3 15/5/3
f 22/8/3 15/8/3 21/8/3
f 23/8/3 17/8/3 16/8/3
f 23/5/3 16/5/3 22/5/3
f 24/5/3 18/5/3 17/5/3
f 24/8/3 17/8/3 23/8/3
f 25/8/3 10/8/3 18/8/3
f 25/5/3 18/5/3 24/5/3
f 26/8/3 10/8/3 25/8/3
f 27/8/3 13/8/3 9/8/3
f 28/6/3 19/6/3 13/6/3
f 28/8/3 13/8/3 27/8/3
f 29/8/3 20/8/3 19/8/3
f 29/6/3 19/6/3 28/6/3
f 30/6/3 14/6/3 20/6/3
f 30/8/3 20/8/3 29/8/3
f 31/8/3 21/8/3 14/8/3
f 31/6/3 14/6/3 30/6/3
f 32/8/3 21/8/3 31/8/3
f 33/8/3 24/8/3 23/8/3
f 33/8/3 23/8/3 22/8/3
f 33/8/3 25/8/3 24/8/3
f 34/8/3 25/8/3 33/8/3
f 35/8/3 25/8/3 34/8/3
f 36/8/3 27/8/3 9/8/3
f 37/8/3 27/8/3 36/8/3
f 38/8/3 27/8/3 37/8/3
f 39/5/3 30/5/3 29/5/3
f 39/8/3 27/8/3 38/8/3
f 39/5/3 29/5/3 28/5/3
f 39/5/3 28/5/3 27/5/3
f 40/5/3 30/5/3 39/5/3
f 41/5/3 30/5/3 40/5/3
f 42/6/3 32/6/3 31/6/3
f 42/5/3 30/5/3 41/5/3
f 42/6/3 31/6/3 30/6/3
f 43/8/3 21/8/3 32/8/3
f 43/6/3 32/6/3 42/6/3
f 44/8/3 21/8/3 43/8/3
f 45/5/3 22/5/3 21/5/3
f 45/8/3 21/8/3 44/8/3
f 46/8/3 33/8/3 22/8/3
f 46/5/3 22/5/3 45/5/3
f 47/8/3 33/8/3 46/8/3
f 48/8/3 33/8/3 47/8/3
f 49/2/3 34/2/3 33/2/3
f 49/4/3 35/4/3 34/4/3
f 50/8/3 25/8/3 35/8/3
f 50/4/3 35/4/3 49/4/3
f 51/8/3 10/8/3 26/8/3
f 51/5/3 26/5/3 25/5/3
f 52/8/3 10/8/3 51/8/3
f 53/8/3 10/8/3 52/8/3
f 54/8/3 38/8/3 37/8/3
f 54/7/3 37/7/3 36/7/3
f 55/5/3 40/5/3 39/5/3
f 55/8/3 38/8/3 54/8/3
f 55/5/3 39/5/3 38/5/3
f 56/5/3 40/5/3 55/5/3
f 57/8/3 41/8/3 40/8/3
f 57/5/3 40/5/3 56/5/3
f 58/5/3 42/5/3 41/5/3
f 58/8/3 41/8/3 57/8/3
f 58/5/3 43/5/3 42/5/3
f 59/5/3 43/5/3 58/5/3
f 60/8/3 44/8/3 43/8/3
f 60/5/3 43/5/3 59/5/3
f 61/5/3 45/5/3 44/5/3
f 61/8/3 44/8/3 60/8/3
f 62/8/3 46/8/3 45/8/3
f 62/5/3 45/5/3 61/5/3
f 62/8/3 47/8/3 46/8/3
f 63/2/3 49/2/3 33/2/3
f 63/2/3 50/2/3 49/2/3
f 63/8/3 33/8/3 48/8/3
f 64/8/3 25/8/3 50/8/3
f 64/2/3 50/2/3 63/2/3
f 65/5/3 51/5/3 25/5/3
f 65/8/3 25/8/3 64/8/3
f 65/5/3 52/5/3 51/5/3
f 66/5/3 52/5/3 65/5/3
f 67/1/3 53/1/3 52/1/3
f 67/5/3 52/5/3 66/5/3
f 68/8/3 10/8/3 53/8/3
f 68/1/3 53/1/3 67/1/3
f 69/8/3 36/8/3 9/8/3
f 69/7/3 54/7/3 36/7/3
f 70/5/3 56/5/3 55/5/3
f 70/7/3 54/7/3 69/7/3
f 70/5/3 55/5/3 54/5/3
f 71/5/3 56/5/3 70/5/3
f 72/8/3 57/8/3 56/8/3
f 72/8/3 59/8/3 58/8/3
f 72/5/3 60/5/3 59/5/3
f 72/8/3 58/8/3 57/8/3
f 72/5/3 61/5/3 60/5/3
f 73/8/3 62/8/3 61/8/3
f 73/5/3 61/5/3 72/5/3
f 74/5/3 67/5/3 66/5/3
f 74/8/3 68/8/3 67/8/3
f 75/8/3 10/8/3 68/8/3
f 75/8/3 68/8/3 74/8/3
f 76/8/3 62/8/3 73/8/3
f 76/8/3 47/8/3 62/8/3
f 76/8/3 73/8/3 72/8/3
f 77/4/3 48/4/3 47/4/3
f 77/8/3 47/8/3 76/8/3
f 78/8/3 71/8/3 70/8/3
f 78/8/3 69/8/3 9/8/3
f 78/8/3 70/8/3 69/8/3
f 79/8/3 71/8/3 78/8/3
f 80/5/3 56/5/3 71/5/3
f 80/8/3 71/8/3 79/8/3
f 81/8/3 72/8/3 56/8/3
f 81/8/3 76/8/3 72/8/3
f 82/8/3 76/8/3 81/8/3
f 83/1/3 75/1/3 74/1/3
f 83/5/3 74/5/3 66/5/3
f 84/8/3 10/8/3 75/8/3
f 84/1/3 75/1/3 83/1/3
f 85/7/3 79/7/3 78/7/3
f 85/5/3 80/5/3 79/5/3
f 86/5/3 56/5/3 80/5/3
f 86/5/3 80/5/3 85/5/3
f 87/8/3 81/8/3 56/8/3
f 87/5/3 56/5/3 86/5/3
f 88/8/3 81/8/3 87/8/3
f 89/8/3 81/8/3 88/8/3
f 90/5/3 82/5/3 81/5/3
f 90/8/3 81/8/3 89/8/3
f 91/5/3 82/5/3 90/5/3
f 92/8/3 76/8/3 82/8/3
f 92/5/3 82/5/3 91/5/3
f 93/8/3 76/8/3 92/8/3
f 94/3/3 77/3/3 76/3/3
f 94/8/3 76/8/3 93/8/3
f 95/4/3 48/4/3 77/4/3
f 95/3/3 77/3/3 94/3/3
f 96/8/3 66/8/3 65/8/3
f 96/8/3 63/8/3 48/8/3
f 96/8/3 65/8/3 64/8/3
f 96/8/3 64/8/3 63/8/3
f 97/8/3 66/8/3 96/8/3
f 98/8/3 66/8/3 97/8/3
f 99/5/3 83/5/3 66/5/3
f 99/8/3 66/8/3 98/8/3
f 100/8/3 84/8/3 83/8/3
f 100/5/3 83/5/3 99/5/3
f 101/8/3 10/8/3 84/8/3
f 101/8/3 84/8/3 100/8/3
f 102/7/3 85/7/3 78/7/3
f 102/8/3 78/8/3 9/8/3
f 103/8/3 86/8/3 85/8/3
f 103/7/3 85/7/3 102/7/3
f 104/5/3 87/5/3 86/5/3
f 104/8/3 86/8/3 103/8/3
f 104/5/3 88/5/3 87/5/3
f 105/5/3 88/5/3 104/5/3
f 106/8/3 89/8/3 88/8/3
f 106/5/3 88/5/3 105/5/3
f 107/5/3 91/5/3 90/5/3
f 107/8/3 89/8/3 106/8/3
f 107/5/3 90/5/3 89/5/3
f 108/5/3 91/5/3 107/5/3
f 109/8/3 92/8/3 91/8/3
f 109/5/3 91/5/3 108/5/3
f 110/5/3 93/5/3 92/5/3
f 110/8/3 92/8/3 109/8/3
f 111/8/3 95/8/3 94/8/3
f 111/5/3 93/5/3 110/5/3
f 111/8/3 94/8/3 93/8/3
f 112/8/3 95/8/3 111/8/3
f 113/4/3 48/4/3 95/4/3
f 113/8/3 95/8/3 112/8/3
f 114/8/3 96/8/3 48/8/3
f 114/4/3 48/4/3 113/4/3
f 115/2/3 97/2/3 96/2/3
f 116/8/3 98/8/3 97/8/3
f 116/2/3 97/2/3 115/2/3
f 117/5/3 100/5/3 99/5/3
f 117/5/3 99/5/3 98/5/3
f 118/1/3 101/1/3 100/1/3
f 118/5/3 100/5/3 117/5/3
f 119/8/3 10/8/3 101/8/3
f 119/1/3 101/1/3 118/1/3
f 120/5/3 107/5/3 106/5/3
f 120/5/3 106/5/3 105/5/3
f 120/8/3 105/8/3 104/8/3
f 120/5/3 108/5/3 107/5/3
f 120/8/3 104/8/3 103/8/3
f 120/8/3 103/8/3 102/8/3
f 121/5/3 108/5/3 120/5/3
f 122/5/3 108/5/3 121/5/3
f 123/6/3 109/6/3 108/6/3
f 123/5/3 108/5/3 122/5/3
f 124/6/3 109/6/3 123/6/3
f 125/8/3 110/8/3 109/8/3
f 125/6/3 109/6/3 124/6/3
f 125/8/3 111/8/3 110/8/3
f 126/2/3 115/2/3 96/2/3
f 126/8/3 114/8/3 113/8/3
f 126/8/3 113/8/3 112/8/3
f 126/8/3 96/8/3 114/8/3
f 127/4/3 116/4/3 115/4/3
f 127/2/3 115/2/3 126/2/3
f 128/8/3 98/8/3 116/8/3
f 128/4/3 116/4/3 127/4/3
f 129/6/3 122/6/3 121/6/3
f 129/8/3 123/8/3 122/8/3
f 130/6/3 124/6/3 123/6/3
f 130/8/3 123/8/3 129/8/3
f 131/8/3 111/8/3 125/8/3
f 131/5/3 112/5/3 111/5/3
f 131/8/3 125/8/3 124/8/3
f 132/8/3 127/8/3 126/8/3
f 132/5/3 112/5/3 131/5/3
f 132/8/3 128/8/3 127/8/3
f 132/8/3 126/8/3 112/8/3
f 133/8/3 128/8/3 132/8/3
f 134/8/3 98/8/3 128/8/3
f 134/8/3 128/8/3 133/8/3
f 135/5/3 117/5/3 98/5/3
f 135/8/3 98/8/3 134/8/3
f 136/8/3 119/8/3 118/8/3
f 136/5/3 117/5/3 135/5/3
f 136/8/3 118/8/3 117/8/3
f 137/6/3 130/6/3 129/6/3
f 137/6/3 129/6/3 121/6/3
f 137/8/3 121/8/3 120/8/3
f 138/6/3 124/6/3 130/6/3
f 138/6/3 130/6/3 137/6/3
f 138/8/3 131/8/3 124/8/3
f 138/8/3 132/8/3 131/8/3
f 139/5/3 133/5/3 132/5/3
f 139/8/3 132/8/3 138/8/3
f 140/8/3 134/8/3 133/8/3
f 140/5/3 133/5/3 139/5/3
f 141/5/3 135/5/3 134/5/3
f 141/8/3 134/8/3 140/8/3
f 142/8/3 136/8/3 135/8/3
f 142/5/3 135/5/3 141/5/3
f 143/5/3 141/5/3 140/5/3
f 143/8/3 139/8/3 138/8/3
f 143/8/3 138/8/3 137/8/3
f 143/8/3 140/8/3 139/8/3
f 144/8/3 142/8/3 141/8/3
f 144/5/3 141/5/3 143/5/3
f 145/8/3 137/8/3 120/8/3
f 145/8/3 143/8/3 137/8/3
f 145/8/3 144/8/3 143/8/3
f 145/8/3 120/8/3 102/8/3
f 145/8/3 102/8/3 9/8/3
f 146/8/3 142/8/3 144/8/3
f 146/8/3 144/8/3 145/8/3
f 146/8/3 119/8/3 136/8/3
f 146/8/3 10/8/3 119/8/3
f 146/8/3 136/8/3 142/8/3
f 147/8/4 148/8/4 149/8/4
f 149/8/4 148/8/4 150/8/4
f 147/8/4 149/8/4 151/8/4
f 151/8/4 149/8/4 152/8/4
f 152/8/4 149/8/4 153/8/4
f 149/5/4 150/5/4 154/5/4
f 153/8/4 149/8/4 154/8/4
f 150/8/4 148/8/4 155/8/4
f 154/5/4 150/5/4 155/5/4
f 155/8/4 148/8/4 156/8/4
f 151/6/4 152/6/4 157/6/4
f 157/6/4 152/6/4 158/6/4
f 152/8/4 153/8/4 159/8/4
f 153/5/4 154/5/4 160/5/4
f 159/8/4 153/8/4 160/8/4
f 154/8/4 155/8/4 161/8/4
f 160/5/4 154/5/4 161/5/4
f 155/5/4 156/5/4 162/5/4
f 161/8/4 155/8/4 162/8/4
f 156/8/4 148/8/4 163/8/4
f 162/5/4 156/5/4 163/5/4
f 163/8/4 148/8/4 164/8/4
f 147/8/4 151/8/4 165/8/4
f 151/6/4 157/6/4 166/6/4
f 165/8/4 151/8/4 166/8/4
f 157/8/4 158/8/4 167/8/4
f 166/6/4 157/6/4 167/6/4
f 158/6/4 152/6/4 168/6/4
f 167/8/4 158/8/4 168/8/4
f 152/8/4 159/8/4 169/8/4
f 168/6/4 152/6/4 169/6/4
f 169/8/4 159/8/4 170/8/4
f 161/8/4 162/8/4 171/8/4
f 160/8/4 161/8/4 171/8/4
f 162/8/4 163/8/4 171/8/4
f 171/8/4 163/8/4 172/8/4
f 172/8/4 163/8/4 173/8/4
f 147/8/4 165/8/4 174/8/4
f 174/8/4 165/8/4 175/8/4
f 175/8/4 165/8/4 176/8/4
f 167/5/4 168/5/4 177/5/4
f 176/8/4 165/8/4 177/8/4
f 166/5/4 167/5/4 177/5/4
f 165/5/4 166/5/4 177/5/4
f 177/5/4 168/5/4 178/5/4
f 178/5/4 168/5/4 179/5/4
f 169/6/4 170/6/4 180/6/4
f 179/5/4 168/5/4 180/5/4
f 168/6/4 169/6/4 180/6/4
f 170/8/4 159/8/4 181/8/4
f 180/6/4 170/6/4 181/6/4
f 181/8/4 159/8/4 182/8/4
f 159/5/4 160/5/4 183/5/4
f 182/8/4 159/8/4 183/8/4
f 160/8/4 171/8/4 184/8/4
f 183/5/4 160/5/4 184/5/4
f 184/8/4 171/8/4 185/8/4
f 185/8/4 171/8/4 186/8/4
f 171/2/4 172/2/4 187/2/4
f 172/4/4 173/4/4 187/4/4
f 173/8/4 163/8/4 188/8/4
f 187/4/4 173/4/4 188/4/4
f 164/8/4 148/8/4 189/8/4
f 163/5/4 164/5/4 189/5/4
f 189/8/4 148/8/4 190/8/4
f 190/8/4 148/8/4 191/8/4
f 175/8/4 176/8/4 192/8/4
f 174/7/4 175/7/4 192/7/4
f 177/5/4 178/5/4 193/5/4
f 192/8/4 176/8/4 193/8/4
f 176/5/4 177/5/4 193/5/4
f 193/5/4 178/5/4 194/5/4
f 178/8/4 179/8/4 195/8/4
f 194/5/4 178/5/4 195/5/4
f 179/5/4 180/5/4 196/5/4
f 195/8/4 179/8/4 196/8/4
f 180/5/4 181/5/4 196/5/4
f 196/5/4 181/5/4 197/5/4
f 181/8/4 182/8/4 198/8/4
f 197/5/4 181/5/4 198/5/4
f 182/5/4 183/5/4 199/5/4
f 198/8/4 182/8/4 199/8/4
f 183/8/4 184/8/4 200/8/4
f 199/5/4 183/5/4 200/5/4
f 184/8/4 185/8/4 200/8/4
f 171/2/4 187/2/4 201/2/4
f 187/2/4 188/2/4 201/2/4
f 186/8/4 171/8/4 201/8/4
f 188/8/4 163/8/4 202/8/4
f 201/2/4 188/2/4 202/2/4
f 163/5/4 189/5/4 203/5/4
f 202/8/4 163/8/4 203/8/4
f 189/5/4 190/5/4 203/5/4
f 203/5/4 190/5/4 204/5/4
f 190/1/4 191/1/4 205/1/4
f 204/5/4 190/5/4 205/5/4
f 191/8/4 148/8/4 206/8/4
f 205/1/4 191/1/4 206/1/4
f 147/8/4 174/8/4 207/8/4
f 174/7/4 192/7/4 207/7/4
f 193/5/4 194/5/4 208/5/4
f 207/7/4 192/7/4 208/7/4
f 192/5/4 193/5/4 208/5/4
f 208/5/4 194/5/4 209/5/4
f 194/8/4 195/8/4 210/8/4
f 196/8/4 197/8/4 210/8/4
f 197/5/4 198/5/4 210/5/4
f 195/8/4 196/8/4 210/8/4
f 198/5/4 199/5/4 210/5/4
f 199/8/4 200/8/4 211/8/4
f 210/5/4 199/5/4 211/5/4
f 204/5/4 205/5/4 212/5/4
f 205/8/4 206/8/4 212/8/4
f 206/8/4 148/8/4 213/8/4
f 212/8/4 206/8/4 213/8/4
f 211/8/4 200/8/4 214/8/4
f 200/8/4 185/8/4 214/8/4
f 210/8/4 211/8/4 214/8/4
f 185/4/4 186/4/4 215/4/4
f 214/8/4 185/8/4 215/8/4
f 208/8/4 209/8/4 216/8/4
f 147/8/4 207/8/4 216/8/4
f 207/8/4 208/8/4 216/8/4
f 216/8/4 209/8/4 217/8/4
f 209/5/4 194/5/4 218/5/4
f 217/8/4 209/8/4 218/8/4
f 194/8/4 210/8/4 219/8/4
f 210/8/4 214/8/4 219/8/4
f 219/8/4 214/8/4 220/8/4
f 212/1/4 213/1/4 221/1/4
f 204/5/4 212/5/4 221/5/4
f 213/8/4 148/8/4 222/8/4
f 221/1/4 213/1/4 222/1/4
f 216/7/4 217/7/4 223/7/4
f 217/5/4 218/5/4 223/5/4
f 218/5/4 194/5/4 224/5/4
f 223/5/4 218/5/4 224/5/4
f 194/8/4 219/8/4 225/8/4
f 224/5/4 194/5/4 225/5/4
f 225/8/4 219/8/4 226/8/4
f 226/8/4 219/8/4 227/8/4
f 219/5/4 220/5/4 228/5/4
f 227/8/4 219/8/4 228/8/4
f 228/5/4 220/5/4 229/5/4
f 220/8/4 214/8/4 230/8/4
f 229/5/4 220/5/4 230/5/4
f 230/8/4 214/8/4 231/8/4
f 214/3/4 215/3/4 232/3/4
f 231/8/4 214/8/4 232/8/4
f 215/4/4 186/4/4 233/4/4
f 232/3/4 215/3/4 233/3/4
f 203/8/4 204/8/4 234/8/4
f 186/8/4 201/8/4 234/8/4
f 202/8/4 203/8/4 234/8/4
f 201/8/4 202/8/4 234/8/4
f 234/8/4 204/8/4 235/8/4
f 235/8/4 204/8/4 236/8/4
f 204/5/4 221/5/4 237/5/4
f 236/8/4 204/8/4 237/8/4
f 221/8/4 222/8/4 238/8/4
f 237/5/4 221/5/4 238/5/4
f 222/8/4 148/8/4 239/8/4
f 238/8/4 222/8/4 239/8/4
f 216/7/4 223/7/4 240/7/4
f 147/8/4 216/8/4 240/8/4
f 223/8/4 224/8/4 241/8/4
f 240/7/4 223/7/4 241/7/4
f 224/5/4 225/5/4 242/5/4
f 241/8/4 224/8/4 242/8/4
f 225/5/4 226/5/4 242/5/4
f 242/5/4 226/5/4 243/5/4
f 226/8/4 227/8/4 244/8/4
f 243/5/4 226/5/4 244/5/4
f 228/5/4 229/5/4 245/5/4
f 244/8/4 227/8/4 245/8/4
f 227/5/4 228/5/4 245/5/4
f 245/5/4 229/5/4 246/5/4
f 229/8/4 230/8/4 247/8/4
f 246/5/4 229/5/4 247/5/4
f 230/5/4 231/5/4 248/5/4
f 247/8/4 230/8/4 248/8/4
f 232/8/4 233/8/4 249/8/4
f 248/5/4 231/5/4 249/5/4
f 231/8/4 232/8/4 249/8/4
f 249/8/4 233/8/4 250/8/4
f 233/4/4 186/4/4 251/4/4
f 250/8/4 233/8/4 251/8/4
f 186/8/4 234/8/4 252/8/4
f 251/4/4 186/4/4 252/4/4
f 234/2/4 235/2/4 253/2/4
f 235/8/4 236/8/4 254/8/4
f 253/2/4 235/2/4 254/2/4
f 237/5/4 238/5/4 255/5/4
f 236/5/4 237/5/4 255/5/4
f 238/1/4 239/1/4 256/1/4
f 255/5/4 238/5/4 256/5/4
f 239/8/4 148/8/4 257/8/4
f 256/1/4 239/1/4 257/1/4
f 244/5/4 245/5/4 258/5/4
f 243/5/4 244/5/4 258/5/4
f 242/8/4 243/8/4 258/8/4
f 245/5/4 246/5/4 258/5/4
f 241/8/4 242/8/4 258/8/4
f 240/8/4 241/8/4 258/8/4
f 258/5/4 246/5/4 259/5/4
f 259/5/4 246/5/4 260/5/4
f 246/6/4 247/6/4 261/6/4
f 260/5/4 246/5/4 261/5/4
f 261/6/4 247/6/4 262/6/4
f 247/8/4 248/8/4 263/8/4
f 262/6/4 247/6/4 263/6/4
f 248/8/4 249/8/4 263/8/4
f 234/2/4 253/2/4 264/2/4
f 251/8/4 252/8/4 264/8/4
f 250/8/4 251/8/4 264/8/4
f 252/8/4 234/8/4 264/8/4
f 253/4/4 254/4/4 265/4/4
f 264/2/4 253/2/4 265/2/4
f 254/8/4 236/8/4 266/8/4
f 265/4/4 254/4/4 266/4/4
f 259/6/4 260/6/4 267/6/4
f 260/8/4 261/8/4 267/8/4
f 261/6/4 262/6/4 268/6/4
f 267/8/4 261/8/4 268/8/4
f 263/8/4 249/8/4 269/8/4
f 249/5/4 250/5/4 269/5/4
f 262/8/4 263/8/4 269/8/4
f 264/8/4 265/8/4 270/8/4
f 269/5/4 250/5/4 270/5/4
f 265/8/4 266/8/4 270/8/4
f 250/8/4 264/8/4 270/8/4
f 270/8/4 266/8/4 271/8/4
f 266/8/4 236/8/4 272/8/4
f 271/8/4 266/8/4 272/8/4
f 236/5/4 255/5/4 273/5/4
f 272/8/4 236/8/4 273/8/4
f 256/8/4 257/8/4 274/8/4
f 273/5/4 255/5/4 274/5/4
f 255/8/4 256/8/4 274/8/4
f 267/6/4 268/6/4 275/6/4
f 259/6/4 267/6/4 275/6/4
f 258/8/4 259/8/4 275/8/4
f 268/6/4 262/6/4 276/6/4
f 275/6/4 268/6/4 276/6/4
f 262/8/4 269/8/4 276/8/4
f 269/8/4 270/8/4 276/8/4
f 270/5/4 271/5/4 277/5/4
f 276/8/4 270/8/4 277/8/4
f 271/8/4 272/8/4 278/8/4
f 277/5/4 271/5/4 278/5/4
f 272/5/4 273/5/4 279/5/4
f 278/8/4 272/8/4 279/8/4
f 273/8/4 274/8/4 280/8/4
f 279/5/4 273/5/4 280/5/4
f 278/5/4 279/5/4 281/5/4
f 276/8/4 277/8/4 281/8/4
f 275/8/4 276/8/4 281/8/4
f 277/8/4 278/8/4 281/8/4
f 279/8/4 280/8/4 282/8/4
f 281/5/4 279/5/4 282/5/4
f 258/8/4 275/8/4 283/8/4
f 275/8/4 281/8/4 283/8/4
f 281/8/4 282/8/4 283/8/4
f 240/8/4 258/8/4 283/8/4
f 147/8/4 240/8/4 283/8/4
f 282/8/4 280/8/4 284/8/4
f 283/8/4 282/8/4 284/8/4
f 274/8/4 257/8/4 284/8/4
f 257/8/4 148/8/4 284/8/4
f 280/8/4 274/8/4 284/8/4
f 287/8/5 286/8/5 285/8/5
f 288/8/5 286/8/5 287/8/5
f 289/8/6 290/8/6 291/8/6
f 291/8/6 290/8/6 292/8/6
